<svg xmlns="http://www.w3.org/2000/svg" width="48" height="48" viewBox="0 0 48 48"><title>fireworks</title><g><path d="M35.625,32.219A6.617,6.617,0,0,0,31.981,31c-1.939.036-4.906.992-6.981,5.747V15.987a1,1,0,0,0-2,0v20.76c-2.075-4.755-5.042-5.711-6.981-5.747h-.094a6.187,6.187,0,0,0-3.55,1.22,1,1,0,1,0,1.25,1.562,4.141,4.141,0,0,1,2.3-.782h.057c3.567.065,6.127,4.482,7.026,12.117a1,1,0,0,0,1.986,0c.9-7.635,3.459-12.052,7.026-12.117h.057a4.182,4.182,0,0,1,2.3.785,1,1,0,0,0,1.245-1.565Z" fill="#ffd764"></path><path d="M11.253,44a1,1,0,0,1-.465-.115L8,42.42,5.212,43.885a1,1,0,0,1-1.45-1.054l.532-3.1-2.256-2.2a1,1,0,0,1,.555-1.7l3.116-.454,1.4-2.824a1.039,1.039,0,0,1,1.792,0l1.395,2.824,3.116.454a1,1,0,0,1,.555,1.7l-2.256,2.2.532,3.1A1,1,0,0,1,11.253,44Z" fill="#ed7064"></path><path d="M27.253,14a1,1,0,0,1-.465-.115L24,12.42l-2.788,1.465a1,1,0,0,1-1.45-1.054l.532-3.1-2.256-2.2a1,1,0,0,1,.555-1.7l3.116-.454L23.1,2.545a1.039,1.039,0,0,1,1.792,0l1.395,2.824,3.116.454a1,1,0,0,1,.555,1.7l-2.256,2.2.532,3.1A1,1,0,0,1,27.253,14Z" fill="#ed7064"></path><path d="M43.253,44a1,1,0,0,1-.465-.115L40,42.42l-2.788,1.465a1,1,0,0,1-1.45-1.054l.532-3.1-2.256-2.2a1,1,0,0,1,.555-1.7l3.116-.454L39.1,32.545a1.039,1.039,0,0,1,1.792,0l1.395,2.824,3.116.454a1,1,0,0,1,.555,1.7l-2.256,2.2.532,3.1A1,1,0,0,1,43.253,44Z" fill="#ed7064"></path><path d="M10,16a3,3,0,0,1-3-3,1,1,0,0,0-2,0,3,3,0,0,1-3,3,1,1,0,0,0,0,2,3,3,0,0,1,3,3,1,1,0,0,0,2,0,3,3,0,0,1,3-3,1,1,0,0,0,0-2Z" fill="#ea9860"></path><path d="M46,15.987a3,3,0,0,1-3-3,1,1,0,0,0-2,0,3,3,0,0,1-3,3,1,1,0,1,0,0,2,3,3,0,0,1,3,3,1,1,0,0,0,2,0,3,3,0,0,1,3-3,1,1,0,1,0,0-2Z" fill="#ea9860"></path><path d="M20,30a1,1,0,0,1-.9-.553c-3.647-7.294-8.892-7.457-9.114-7.46a1,1,0,0,1,.009-2h0c.27,0,6.665.112,10.893,8.566A1,1,0,0,1,20,30Z" fill="#ffd764"></path><path d="M28,30a1,1,0,0,1-.894-1.447C31.333,20.1,37.728,19.988,38,19.987h0a1,1,0,0,1,0,2c-.215,0-5.46.166-9.107,7.46A1,1,0,0,1,28,30Z" fill="#ffd764"></path></g></svg>
