<svg xmlns="http://www.w3.org/2000/svg" width="25" height="25" viewBox="0 0 25 25"><title>mexico</title><g><path fill="#E6E6E6" d="M8.32 3.38h8.32v18.72h-8.32z"></path><path fill="#D30F25" d="M24.96 21.06a1.04 1.04 0 0 1-1.04 1.04h-7.28v-18.72h7.28a1.04 1.04 0 0 1 1.04 1.04v16.64z"></path><path fill="#006847" d="M8.32 22.1h-7.28a1.04 1.04 0 0 1-1.04-1.04v-16.64a1.04 1.04 0 0 1 1.04-1.04h7.28v18.72z"></path><path fill="#6B422E" d="M12.48 9.62c-1.72 0-3.12 1.4-3.12 3.12a3.12 3.12 0 1 0 3.12-3.12z m0 5.2a2.08 2.08 0 1 1 0-4.16 2.08 2.08 0 0 1 0 4.16z"></path></g></svg>