<svg xmlns="http://www.w3.org/2000/svg" width="48" height="48" viewBox="0 0 48 48"><title>hacker-v2</title><g><path d="M35.828,46H12.172A7.018,7.018,0,0,1,7.69,44.378L5.9,42.889a6.968,6.968,0,0,1-2.457-6.3l1.187-8.9A6.978,6.978,0,0,1,7.9,22.655l4.478-2.761A16.576,16.576,0,0,1,11,14C11,8.9,19.637,1,24,1S37,8.9,37,14a16.58,16.58,0,0,1-1.377,5.894l4.68,2.884a7.022,7.022,0,0,1,3.189,4.585l1.114,9.283a6.97,6.97,0,0,1-2.47,6.208L40.31,44.377A7.013,7.013,0,0,1,35.828,46Z" fill="#363636"></path><path d="M36.707,29.292A1,1,0,0,0,36,29H12a1,1,0,0,0-1,1V46a1,1,0,0,0,1,1H36a1,1,0,0,0,1-1V30A1,1,0,0,0,36.707,29.292Z" fill="#e3e3e3"></path><circle cx="24" cy="38" r="3" fill="#aeaeae"></circle><path d="M24,25c-3.589,0-8-5.513-8-10a1,1,0,0,1,.5-.868l5.016-2.865a5.014,5.014,0,0,1,4.96,0L31.5,14.134A1,1,0,0,1,32,15C32,19.487,27.589,25,24,25Z" fill="#bf8c5a"></path><path d="M12.738,24.583a1,1,0,0,0,1.625-1.166,18.461,18.461,0,0,1-1.982-3.528l-.012-.006,0,.01-1.7,1.051A20.219,20.219,0,0,0,12.738,24.583Z" fill="#636363"></path><path d="M35.269,24.583a1,1,0,0,1-1.625-1.166,18.414,18.414,0,0,0,1.983-3.528l.011-.006,0,.01,1.7,1.051A20.159,20.159,0,0,1,35.269,24.583Z" fill="#636363"></path></g></svg>