<?xml version="1.0" encoding="utf-8"?>
<!-- Generator: Adobe Illustrator 27.0.0, SVG Export Plug-In . SVG Version: 6.00 Build 0)  -->
<svg version="1.1" id="Layer_1" xmlns="http://www.w3.org/2000/svg" xmlns:xlink="http://www.w3.org/1999/xlink" x="0px" y="0px"
	 width="40.34px" height="48px" viewBox="0 0 40.34 48" style="enable-background:new 0 0 40.34 48;" xml:space="preserve">
<style type="text/css">
	.st0{fill-rule:evenodd;clip-rule:evenodd;fill:#EBC7A0;}
	.st1{fill-rule:evenodd;clip-rule:evenodd;fill:#F9DEC4;}
	.st2{fill-rule:evenodd;clip-rule:evenodd;fill:#D8A373;}
	.st3{fill-rule:evenodd;clip-rule:evenodd;fill:#BA8067;}
	.st4{fill-rule:evenodd;clip-rule:evenodd;fill:#231F20;}
	.st5{fill:#231F20;}
	.st6{fill-rule:evenodd;clip-rule:evenodd;fill:#E6B57C;}
	.st7{fill:#F9DEC2;}
	.st8{fill:#D8A373;}
	.st9{fill:#BA8067;}
	.st10{fill-rule:evenodd;clip-rule:evenodd;fill:#965A48;}
	.st11{fill:#FFFFFF;}
	.st12{fill-rule:evenodd;clip-rule:evenodd;fill:#FFFFFF;}
	.st13{fill-rule:evenodd;clip-rule:evenodd;fill:#6D6E71;}
	.st14{fill-rule:evenodd;clip-rule:evenodd;fill:#808285;}
	.st15{fill-rule:evenodd;clip-rule:evenodd;fill:#4E4E4F;}
	.st16{fill-rule:evenodd;clip-rule:evenodd;fill:#D2D3D4;}
	.st17{fill-rule:evenodd;clip-rule:evenodd;fill:#939598;}
	.st18{fill-rule:evenodd;clip-rule:evenodd;fill:#BCBEC0;}
	.st19{fill-rule:evenodd;clip-rule:evenodd;fill:#B65453;}
	.st20{fill-rule:evenodd;clip-rule:evenodd;fill:#7A3118;}
	.st21{fill-rule:evenodd;clip-rule:evenodd;fill:#A8A9AC;}
	.st22{fill-rule:evenodd;clip-rule:evenodd;fill:#E6E7E8;}
	.st23{fill-rule:evenodd;clip-rule:evenodd;fill:#CA6E6B;}
	.st24{fill-rule:evenodd;clip-rule:evenodd;fill:#A74142;}
	.st25{fill-rule:evenodd;clip-rule:evenodd;fill:#8B3533;}
	.st26{fill-rule:evenodd;clip-rule:evenodd;fill:#D87371;}
	.st27{fill-rule:evenodd;clip-rule:evenodd;fill:#F09E9F;}
	.st28{fill-rule:evenodd;clip-rule:evenodd;fill:#9A4F4E;}
	.st29{fill:#FFECDB;}
</style>
<g>
	<path class="st0" d="M4.6,26.21c0,0-0.3-0.15-0.45-0.3c-0.3,0-0.9-0.3-1.35,0.15c-0.45,0.45-0.75,0.9-0.75,2.55
		c-0.15,1.5,0,2.25,0.15,2.55c0.15,0.3,0.9,1.65,1.05,2.71c0.15,0.9,0.3,1.5,0.3,1.5s-0.45,1.5,0.75,1.95
		c1.05,0.45,1.95-0.15,2.25-0.45s2.1-3.31,2.1-3.31L4.9,25.91L4.6,26.21z"/>
	<path class="st1" d="M4.15,25.91L4.15,25.91c-0.15-0.15-0.9-0.3-1.35,0c-0.45,0.45-0.75,1.05-0.75,2.55c-0.15,1.5,0,2.25,0.15,2.55
		c0.15,0.3,0.9,1.65,1.05,2.71c0.15,0.9,0.3,1.5,0.3,1.5s-0.45,1.65,0.75,2.1c0.9,0.45,1.65,0,2.1-0.3
		c-0.75-0.15-1.65-0.45-1.95-0.9c-0.75-0.9,0-2.55,0-2.55C4.3,33.72,4.3,33.87,4,34.02c0,0-0.6-1.5-0.9-2.25s-0.45-2.55-0.45-3.16
		c0.15-0.6,1.5-1.5,1.65-1.95C4.3,26.36,4.15,26.36,4.15,25.91"/>
	<path class="st2" d="M4.6,26.21c0,0-0.3-0.15-0.45-0.3C4,25.76,3.85,25.76,3.7,25.76c0.15,0.3,0.3,0.45,0.15,0.6
		c-0.15,0.15-0.45,0.3-0.6,0.3c0,0-1.05,0.9-0.45,3.31s1.35,4.06,1.35,4.06s-0.75-1.8-0.9-3.46C3.1,28.91,3.4,28.31,3.4,28.61
		c0,0.3,0.3,2.55,0.3,2.55s0.6-1.35,1.05-0.9c0.3,0.3,0.45,0.75,0.45,1.2c0,0.15-0.3,1.35-0.3,1.35s0.6,3.01,1.05,3.46
		c0.3,0.3,1.05,0.15,1.65-0.15c0.15-0.3,0.3-0.45,0.45-0.75c0.15-0.9,0.6-1.05,0.6-2.4l-3.31-6.91L4.6,26.21z"/>
	<path class="st3" d="M4.6,26.21c0,0-0.3-0.15-0.45-0.3c-0.15,0-0.15-0.15-0.3-0.15c0.3,0.45,0.9,1.2,0.9,1.5
		c0,0.45-0.15,0.45-0.15,0.45l-0.75-0.6L3.7,29.06v0.45c0,0,0.6-0.6,1.35-0.45c0.75,0.15,0.75,0.3,0.75,0.3l-0.75,0.15
		c0,0-1.05,0.9-1.05,2.1c0,1.2,0.6,1.35,1.05,1.35s1.05-0.45,1.05-0.45s1.05-0.75,1.35-1.35L4.9,25.76L4.6,26.21z"/>
	<path class="st4" d="M5.2,29.66c0,0-1.2,0.9-1.2,2.1c0,0.3,0,0.6,0.15,0.75c0,0.15,0.15,0.15,0.3,0.3c0.15,0,0.3,0.15,0.3,0.15
		c0.3,0,0.6-0.15,0.9-0.3l0.15,0.15c-0.45,0.15-0.75,0.3-1.05,0.3c-0.15,0-0.3,0-0.45-0.15C4.15,32.82,4,32.82,4,32.67
		c-0.15-0.3-0.15-0.6-0.15-0.9c0-1.35,1.35-2.25,1.35-2.25V29.66z M3.4,35.07c0,0.15,0,0.3,0,0.3s0,0.15,0,0.3
		c0-0.15,0.45-1.2,0.75-1.5l0.15-0.45l-0.45,0.45c-0.15-0.15-0.3-0.6-0.45-1.2c-0.3-0.75-0.45-1.5-0.6-2.25
		c-0.15-0.75-0.15-1.35-0.15-2.1c0-1.65,0.75-1.95,0.75-1.95H3.25c0,0-0.75,0-0.75,1.8c0,0.75,0,1.5,0.15,2.1
		c0.15,0.75,0.45,1.5,0.6,2.25c0.3,0.75,0.45,1.2,0.6,1.35C3.7,34.47,3.55,34.77,3.4,35.07z M5.2,29.36c0,0-0.75-1.35-1.35-2.1
		c0,0.45-0.15,1.35-0.15,2.25s-0.15,1.35-0.15,1.35c0,0.75-0.15-0.9-0.15-1.5c0-0.45,0-2.25,0.3-2.55c0.75,0.6,1.2,1.5,1.65,2.25
		L5.2,29.36z"/>
	<path class="st5" d="M4.15,25.91c0.15,0.15,0.3,0.15,0.45,0.15l0.3-0.3l0.15-0.15v0.15l3.76,7.66l0,0l0,0c0,0-1.65,3.01-2.1,3.31
		c-0.3,0.15-0.6,0.45-0.9,0.45c-0.45,0.15-1.05,0.15-1.5,0c-1.05-0.45-0.9-1.95-0.9-2.1s-0.15-0.6-0.3-1.5
		c-0.15-0.45-0.6-1.35-0.9-1.95c-0.15-0.15-0.15-0.3-0.15-0.45c-0.15-0.3-0.15-0.6-0.15-0.9c0-0.6,0-1.2,0-1.8
		c0-0.75,0.15-1.35,0.3-1.8c0.15-0.3,0.3-0.6,0.6-0.9c0.15-0.15,0.45-0.15,0.6-0.3C3.55,25.76,3.85,25.76,4.15,25.91 M4.45,26.21
		c-0.15-0.15-0.3-0.15-0.45-0.3c-0.15-0.15-0.45-0.15-0.6-0.15s-0.45,0.15-0.6,0.15c-0.3,0.15-0.45,0.45-0.45,0.75
		c-0.15,0.45-0.15,0.9-0.3,1.65c0,0.6,0,1.2,0,1.65c0,0.3,0,0.45,0.15,0.75c0,0.15,0.15,0.3,0.15,0.45c0.3,0.6,0.75,1.5,0.9,2.25
		c0.15,0.9,0.3,1.5,0.3,1.5l0,0c0,0-0.3,1.5,0.75,1.95c0.45,0.15,0.9,0.15,1.35,0c0.3-0.15,0.6-0.3,0.9-0.45
		c0.3-0.3,1.8-2.86,1.95-3.31L4.9,25.61L4.45,26.21L4.45,26.21L4.45,26.21z"/>
	<path class="st1" d="M35.56,24.25c0,0,0.45,0.15,0.6,0.15c0.3,0,1.05-0.3,1.5,0.3c0.45,0.6,0.9,2.1,0.75,3.01s-0.75,2.4-0.6,3.76
		c0.15,1.35,0.15,2.25,0.3,2.86c0.15,0.6-0.15,1.35-1.2,1.65c-1.05,0.15-1.35-0.45-2.25,0c-0.9,0.45-3.31-4.36-3.31-4.36
		S34.51,24.25,35.56,24.25"/>
	<path class="st0" d="M38.12,34.92c-0.15,0.3-0.45,0.75-1.2,0.75c-1.05,0.15-1.35-0.45-2.25,0c-0.9,0.45-3.31-4.06-3.31-4.06
		s0.6-1.35,1.2-2.71c1.35-0.75,3.01-1.35,3.01-1.35s-0.3-2.4,1.95-2.25c0,0,0.9,1.5,0.75,2.55s-0.45,2.25-0.45,2.25
		s-0.6-2.4-1.05-2.71c-0.3-0.15-0.6-0.15-1.05-0.15c0,0,0.9,1.2,1.2,2.25c0.3,1.05,0,2.25,0,2.25s-1.05,0-1.2,1.35
		c-0.15,1.35-0.15,2.25,0.15,2.4C36.16,35.38,37.37,35.23,38.12,34.92"/>
	<path class="st2" d="M36.31,25.91c0,0,0.9,0.9,1.2,1.8c0.3,0.9,0.3,0.9,0.3,0.9s0.3-1.65,0-2.25c-0.15-0.45-0.45-0.75-0.6-1.2
		L36.31,25.91z M36.01,28.16c0,0-0.6-0.6-0.9-0.3c-0.45,0.3-0.3,2.1-0.15,2.25c0.15,0.15,0.75,0,0.75,0s0.3,0.3,0.45,0.6
		c0,0.15,0,0.3,0,0.45c0,0,0.45,0.15,0.6,0.15l0.15,0.15C36.92,31.47,37.22,29.66,36.01,28.16L36.01,28.16z"/>
	<path class="st4" d="M36.61,26.21c0,0,0.9,1.65,1.05,2.4c0.15,0.9,0.3,1.2,0.3,1.2l-0.15,0.3c0,0-0.15-0.6-0.3-1.5
		C37.22,27.86,36.46,26.06,36.61,26.21L36.61,26.21z M35.11,31.32c0,0,0.9-0.3,1.2-0.15l0.45,0.15c0-0.45,0-2.1-0.9-3.16l0.15,0.15
		c1.05,1.5,0.9,3.16,0.9,3.16v0.15h-0.15c0,0-0.15-0.15-0.6-0.3c-0.3-0.15-1.05,0.15-1.05,0.15L35.11,31.32z M35.41,28.46
		c0,0,0.45-2.1,1.05-2.71c0.45-0.45,0.6-0.6,1.2-0.6l0,0c0,0-0.15,0.15-0.3,0.3c0.3,0.45,0.6,0.9,0.6,1.35
		c0.15,0.9-0.15,1.8-0.15,1.8v0.15c0,0,0.15-1.2,0-1.95c-0.15-0.45-0.3-0.9-0.6-1.35c-0.15,0.15-0.45,0.3-0.6,0.45
		c-0.6,0.6-1.05,2.55-1.05,2.55L35.41,28.46z"/>
	<path class="st5" d="M36.31,24.4c-0.3,0-0.6-0.15-0.75-0.15c-0.9,0.15-3.76,6.61-4.06,7.36c0.3,0.45,2.4,4.36,3.16,4.06
		c0.45-0.15,0.75-0.15,1.2,0c0.3,0.15,0.75,0.15,1.05,0h0.15c0.3,0,0.6-0.3,0.75-0.6c0.15-0.3,0.15-0.45,0.15-0.75c0,0,0,0,0-0.15
		c-0.15-0.45-0.15-1.2-0.3-2.1c0-0.3,0-0.45,0-0.75c0-1.05,0.15-2.1,0.45-2.86c0.15-0.3,0.15-0.6,0.15-0.9c0-0.45,0-0.9-0.15-1.5
		c-0.15-0.6-0.45-1.2-0.6-1.5C37.22,24.1,36.61,24.4,36.31,24.4L36.31,24.4L36.31,24.4z M35.56,24.1c0,0,0.3,0.15,0.6,0.15l0,0l0,0
		c0.3-0.15,1.05-0.3,1.5,0.3c0.3,0.3,0.45,0.9,0.6,1.5s0.15,1.05,0.15,1.5c0,0.3-0.15,0.6-0.15,0.9c-0.15,0.9-0.45,1.95-0.45,2.86
		c0,0.3,0,0.45,0,0.75c0,0.9,0.15,1.65,0.3,2.1c0,0,0,0,0,0.15c0,0.3,0,0.6-0.15,0.9c-0.15,0.3-0.6,0.6-0.9,0.6h-0.15
		c-0.45,0-0.75,0-1.2-0.15c-0.3-0.15-0.6-0.15-1.05,0c-0.9,0.6-3.31-4.06-3.31-4.06l0,0l0,0C31.35,31.62,34.51,24.1,35.56,24.1
		L35.56,24.1z"/>
	<path class="st0" d="M35.86,30.12c-0.15-0.75-0.3-3.76-0.3-4.36c0-0.6-0.15-1.65-0.15-2.55s-0.45-8.27-1.05-9.77
		s-1.95-4.81-3.16-5.71c-1.2-0.9-6.16-2.1-6.16-2.1s-6.91-1.65-9.92-0.3S7.61,8.62,6.71,9.83s-1.65,3.16-2.25,6.31
		S4.3,24.55,4.9,27.11c0,0,0.15,5.11,0.6,7.21c0.45,2.1,1.5,4.66,2.1,6.01l0.6,1.05l0.15,0.3c0,0,1.05,1.35,1.65,1.8
		c1.05,0.75,2.1,1.5,3.31,1.95c0.3,0,0.6,0,0.9,0l0.9,0.75c0,0,0,0.15,1.65,0.9c1.65,0.75,4.36,0.3,4.36,0.3l0.45-0.15l0.3,0.15
		h1.65c1.65,0,3.16-1.2,3.16-1.2l0.45-0.3l1.05-1.05l0,0c1.05-1.05,3.61-2.4,4.96-3.91c0.9-0.9,0.6-0.6,0.6-0.6h0.15v-0.15
		c0,0,0.9-3.61,1.35-5.71C35.56,32.67,36.01,30.87,35.86,30.12z"/>
	<path class="st6" d="M9.71,8.02c-1.5,0.75-2.55,1.5-3.01,2.1c-0.75,1.2-1.65,3.16-2.25,6.31c-0.3,2.1-0.45,5.11-0.15,7.51
		c1.05,1.05,1.8,0.3,4.51-0.15c3.01-0.45,2.4-0.3,3.91-1.2s1.95-1.2,2.1-1.5c0-0.3-0.9-2.4-1.05-4.21c-0.15-1.8,3.46-2.86,3.46-2.86
		s-1.95,0.3-4.06,0s-2.55-5.71-2.71-5.86C10.31,8.02,10.01,8.02,9.71,8.02"/>
	<path class="st1" d="M8.81,8.47c-1.05,0.6-1.8,1.05-2.1,1.5c-0.75,1.2-1.65,3.16-2.25,6.16c0.9,0,2.55-0.75,3.61-1.8
		c1.35-1.35,1.65-5.56,1.65-5.56C9.41,8.77,9.11,8.62,8.81,8.47"/>
	<path class="st7" d="M25.64,37.33c0-0.15,1.35-0.45,1.65-1.5s-0.75-2.71-0.9-2.71c-0.15,0-1.2,1.2-1.8,1.95
		c-0.6,0.9-2.55,1.2-2.55,1.2C20.98,37.78,25.64,37.48,25.64,37.33z"/>
	<path class="st7" d="M25.19,39.13c-0.75,0.45-2.55,0.6-2.55,0.6c3.46,1.2,3.61-1.2,3.46-1.35C25.94,38.23,25.94,38.68,25.19,39.13z
		"/>
	<path class="st7" d="M25.34,31.92c0.15-0.3-0.15-2.4-1.8-2.55c0,0,0.15,1.2,0.15,1.65C23.54,31.62,25.19,32.22,25.34,31.92z"/>
	<path class="st7" d="M13.17,30.72c0.45-0.75,0.3-1.35-1.65-1.5c-1.2-0.15-2.25-0.6-3.01-1.35c-0.45,0.6,0.15,2.71,0.6,3.31
		C9.41,31.47,12.72,31.47,13.17,30.72z"/>
	<path class="st7" d="M8.21,41.39l0.15,0.3c0,0,0.15,0.15,0.3,0.3c0.3-0.75,0.9-2.4,0.3-3.46c-0.6-1.05-1.8-1.2-2.4-1.2
		c0.45,1.2,0.9,2.25,1.2,2.86L8.21,41.39z"/>
	<path class="st7" d="M35.86,30.12c-0.15-0.75-0.3-3.76-0.3-4.36c0-0.6-0.15-1.65-0.15-2.55s-0.45-8.27-1.05-9.77
		c-0.45-1.05-1.2-3.01-2.1-4.36c-0.15,0-0.3,0-0.6,0c0,0-18.04,1.2-17.88,1.95c0,0.45,0.6,1.2,2.25,1.5c1.5,0.15,3.91-0.3,6.01-0.15
		c4.51,0.15,4.96,0.6,4.66,0.75c-0.3,0.15-11.87,1.35-12.02,3.01c-0.15,1.65,7.51-0.45,11.72,0c4.21,0.45,3.46,2.25,3.76,2.71
		c0.3,0.6,1.05,0.6,1.05,0.6s1.65,1.8,1.8,3.46c0.15,1.5-1.95,1.5-1.95,1.5s1.2,0.9,0.45,1.95c-0.9,1.2-5.71,0.45-5.86,0.45
		c-0.15,0,1.65,2.1,3.91,3.01s2.71,3.16,1.95,7.06c-0.75,3.91-1.05,5.86-1.05,5.86l-1.2,1.2c0,0-2.25-3.16-3.61-2.4
		c-1.2,0.9,1.2,4.36,1.2,4.36l0,0l1.05-0.9l0,0c1.05-1.05,3.61-2.4,4.96-3.91c0.9-0.9,0.6-0.6,0.6-0.6h0.15v-0.15
		c0,0,0.9-3.61,1.35-5.71C35.56,32.67,36.01,30.87,35.86,30.12z"/>
	<path class="st7" d="M20.08,23.05c0,0-1.35,7.21-0.75,7.97c0.6,0.75,3.46,0.75,3.46-0.6c0-1.5-1.2-5.86-1.2-6.76
		C21.43,22.75,20.23,22.75,20.08,23.05z"/>
	<path class="st8" d="M28.8,36.88c0,0,0.3-1.35-0.9-2.1c0,0,0.3,1.35,0.3,1.8s0,0.6,0,0.6L28.8,36.88z"/>
	<path class="st8" d="M28.05,31.77c-0.75-0.9-3.31-1.95-3.31-1.95c1.2,0.75,0.75,2.1,0.75,2.1s0.45-0.3,1.35,0
		c0.9,0.3,1.95,1.05,1.95,1.05S28.8,32.67,28.05,31.77z"/>
	<path class="st8" d="M23.54,23.8c0.15,1.5,0.6,1.95,0.6,1.95s0.15-0.9,0.9-0.9c0.75,0,1.05,0.6,2.71,0.9
		c1.05,0.15,1.95,0.15,3.01,0c0,0-1.35-0.15-1.8-0.3c-0.45-0.15,0.45-0.3,1.05-0.6c0.3-0.3,0.6-0.6,0.75-1.05l-1.5-0.75l0.15-0.3
		c0,0,0.6-0.3,1.5,0.15c0.9,0.3,1.05,0.3,1.05,0.3s-0.75-1.05-1.8-1.35c-1.05-0.45-1.8-1.05-1.35-1.8c0.45-0.75,2.55-0.6,2.55-0.6
		l-1.5-0.45c0,0-4.81,0.3-6.31,1.5s-1.5,1.2-1.5,1.2l2.1-0.15C24.14,21.7,23.24,22.3,23.54,23.8z"/>
	<path class="st8" d="M25.04,46.65c-1.65,0.15-2.55-1.05-3.01-1.8c-0.45-0.75-0.9-0.3-1.2,0c-0.45,0.3-0.45-3.61-0.45-3.61
		l-1.5,0.15c0,0,0.15,0,1.65-0.3c1.5-0.15,2.25-0.45,2.25-0.6c0,0-0.15,0-0.9-0.15c-0.9-0.15-1.5-1.8-1.5-1.8l-1.05-1.8
		c0,0-0.45-1.2-0.3-1.5c0.15-0.45,1.65,0,1.65,0l0.3,0.3h0.45c0,0,0.3,0,0.6-0.45s-0.15-1.95-0.15-1.95s-0.45,0.15-0.75,0.3
		c-0.15,0-0.45,0.15-0.6,0.15l-1.35-0.3c0.6,0.15,1.2,0.15,1.8,0c1.05-0.15,1.05-1.2,1.05-1.2c-0.75,0.3-2.71,0-3.46-1.8
		c-0.75-1.65,0.75-2.4,0.9-5.71c0.15-3.31-3.46-4.06-3.46-4.06v1.05c0,0-4.21-1.5-6.16-1.05s-3.01,1.65-3.01,1.65l-0.3,0.3
		l-0.75,0.9c0,0,0-0.3,0.45-1.95c0.45-1.5,2.25-2.4,4.66-3.76c2.4-1.35,1.5-3.61-0.75-2.86c-2.25,0.75-5.41,2.55-5.26,0.3
		c0-0.3,0.15-0.75,0.15-1.05c-0.3,0.75-0.45,1.65-0.6,2.4C4,19.44,4.3,24.55,4.9,27.11c0,0,0.15,5.11,0.6,7.21
		c0.15,0.9,0.45,1.65,0.75,2.55c0.15,0,0.45-0.15,0.6-0.15c1.8-0.45,3.16,2.86,3.76,3.01c0.6,0.15,0.15-1.95,0.15-2.4
		s3.31,4.66,2.1,5.56c-1.2,0.9-4.51-1.35-4.51-1.35H8.21l0.15,0.3c0,0,0.3,0.3,0.6,0.75l0.15,0.15c0,0,0,0.15,0.15,0.15
		c0.3,0.15,0.45,0.45,0.6,0.6l0,0l0,0l0,0l0,0c1.05,0.75,2.1,1.5,3.31,1.95c0.3,0,0.6,0,0.9,0l0.9,0.75c0,0,0,0.15,1.65,0.9
		s4.36,0.3,4.36,0.3l0.45-0.15l0.3,0.15h1.65c1.65,0,3.16-1.2,3.16-1.2L27,45.9l0.3-0.3v-0.15C27.15,45.75,26.7,46.65,25.04,46.65z
		 M13.47,32.52c-0.3,1.8-1.5,2.1-2.86,2.1s-4.81-4.21-3.91-9.17c0,0,1.35,2.25,5.11,2.55s4.51-0.15,4.21,0
		C15.87,28.31,13.77,30.57,13.47,32.52z M17.08,31.62c-0.45,0.15-1.2,0.45-1.2-0.3c0-0.75,0.9-1.95,1.65-1.95
		c0,0.45,0.15,0.75,0.15,1.2C17.83,31.02,17.53,31.47,17.08,31.62z"/>
	<path class="st8" d="M7.76,9.22L7.76,9.22c-1.05,0.15-2.25,2.55-2.71,4.66c0.45-1.8,1.05-3.01,1.65-3.91
		C6.86,9.83,7.31,9.52,7.76,9.22z"/>
	<path class="st8" d="M24.14,33.12c-0.15,0.15-0.3,0.15-0.45,0.3c0.45-0.15,0.75-0.15,1.2-0.3c0.45-0.15,0.45-0.3,0.45-0.3
		s-0.9-0.75-1.5-0.75c-0.6,0-1.05,0.3-1.35,0.75c0,0,0.75,0.15,1.2,0.15c0.6,0,0.9-0.15,0.9-0.15
		C24.29,32.82,24.14,32.97,24.14,33.12z"/>
	<path class="st8" d="M17.68,6.37c-0.45-0.3-1.95,0-3.91-0.3c-2.25,1.05-4.66,2.1-6.01,3.01c1.05,0,9.77-1.05,9.77-1.05
		S18.13,6.67,17.68,6.37z"/>
	<path class="st9" d="M12.57,45.29c0.15,0.15,0.3,0.15,0.45,0.3c0.3,0,0.75,0,1.05,0l0.9,0.75c0,0,0,0.15,1.65,0.9
		s4.36,0.3,4.36,0.3l0.45-0.15l0.3,0.15h1.65h0.15l0,0h0.15l0,0h0.15l0,0h0.15l0,0c0.15,0,0.3,0,0.45-0.15l0,0
		c0.15,0,0.3-0.15,0.3-0.15c-1.05,0.15-3.46-0.75-3.46-0.75s0,0.3-2.86-0.3c-2.86-0.6-3.61-5.26-4.06-5.71
		c-0.45-0.45-0.15,2.55-0.75,3.46c-0.6,0.9-2.86,0.15-2.86,0.15C11.37,44.69,12.57,45.29,12.57,45.29z"/>
	<path class="st9" d="M25.64,23.35c-0.45,0-1.2,0.9-1.2,0.9l-0.3,0.6c0.15-0.15,0.45-0.3,0.6-0.3c0.45-0.15,1.35,0.3,2.55,0.45
		c1.2,0.15,1.8,0,1.8,0s-0.45,0-1.35-0.15c-0.45,0-1.05-0.15-1.5-0.3c0,0,0.45,0,1.35,0c1.05,0,1.05,0,1.8-0.3
		c0.75-0.3,1.95,0.3,1.95,0.3s0-0.3-0.45-0.9c-0.15-0.3-0.45-0.45-0.75-0.45l-0.45,0.15c-0.15-0.3-0.3-0.6-0.6-0.9
		c-0.15-0.15-0.15-0.3-0.15-0.6c0,0-0.45-0.15-1.05-0.6c-0.6-0.45-0.9-1.65-0.9-1.65s-2.1,0.9-1.8,1.35c0.3,0.45-0.45,0.9-0.9,1.8
		c-0.3,0.45-0.45,1.05-0.45,1.65c0.15-0.3,0.3-0.6,0.6-0.9C24.89,22.9,25.64,23.35,25.64,23.35z"/>
	<path class="st9" d="M16.17,32.22c-0.75-0.15-1.35-2.4,1.35-3.16c0,0-1.35-0.75-2.4,1.35c-1.05,1.95-0.75,2.71-0.75,2.71
		s0.6-0.6,1.05-0.45c0.45,0.3,1.5,1.65,2.25,1.95c0.75,0.3,2.4-0.9,2.4-0.9s0.45,1.95,0.75,2.1c0.15,0,0.6-0.15,0.6-0.15
		s-0.45,0-0.6-0.3c-0.15-0.3-0.3-1.8-0.3-1.8s-1.05-0.45-1.2-0.6c-0.3-0.15-0.6-1.5-0.9-1.8C18.13,30.87,16.93,32.37,16.17,32.22z"
		/>
	<path class="st9" d="M16.78,37.18c0,0-2.1,0.9-2.71-0.15c-0.6-1.05-0.45-2.55-1.2-1.65c-0.75,0.9-1.35,1.65-0.45,2.86
		c0.9,1.2,0.9,1.5,1.05,1.35c0.15-0.15,0.45-0.45,0.6-0.3c0.15,0.15,1.95,2.25,4.06,2.25c1.35,0,2.71-0.15,4.06-0.6
		c0,0-2.4,0.75-3.91,0.3c-1.5-0.45-1.5-1.8-1.2-1.8s2.25,0.3,3.16,0.15c0.9-0.15,1.2-0.6,1.2-0.6l4.21-1.05c0,0,2.1,0.6,2.25,0.15
		c0.15-0.3-1.35-1.05-1.95-0.75c-0.45,0.15-2.25,0.15-2.25,0.15l-6.31-0.45L16.78,37.18z"/>
	<path class="st9" d="M9.11,25.61c0.9,0.6,1.8,0.9,2.86,0.9c1.65,0,4.21-1.2,4.21-1.2s0,0.75-1.05,1.5
		c-1.05,0.9-3.16,0.75-3.16,0.75s0.75,0.15,2.55-0.15s3.31-3.01,3.31-3.01s0,0.15,0,1.2c0,0.75-0.15,1.35-0.45,2.1
		c0,0,0.9-0.9,1.05-3.16c0.15-2.25-2.71-4.06-2.71-4.06c-0.15,0.3-0.45,0.45-0.9,0.3c-0.6-0.15-1.65,0-1.95-0.15h-0.15
		c0.45,0.3,0.9,0.75,1.05,1.05c0.15,0.6,0,0.75,0,0.75c-0.3,0-0.75,0-1.05,0h1.2c0,0-0.15,0.3-0.6,0.3c-0.45,0-0.3-0.15-0.3-0.15
		c-0.15,0-0.45,0-0.6,0.15c-0.75,0.3-0.9,0.3-0.9,0.3l-0.9,1.05c0,0-1.2-0.6-0.75-1.95c0.3-0.9,1.2-1.2,1.95-1.5h-0.3
		c0,0-2.55,0-3.16,0.3c-0.6,0.3-1.5,1.35-1.2,2.55S9.11,25.61,9.11,25.61z M14.67,25.16c0,0-0.6,0.3-1.2,0.3
		c-0.45,0-0.3-0.6-0.3-0.6l2.4-0.15c0,0-0.3,0.75-1.5,1.2s-1.5,0.15-1.5,0.15C13.32,25.91,14.67,25.16,14.67,25.16z"/>
	<path class="st9" d="M5.8,28.61c-0.3,0-0.45,0.3-0.75,0.6c0.15,1.65,0.3,3.91,0.45,5.11c0.15,0.45,0.15,0.9,0.3,1.5
		c1.05-1.05,2.71-1.2,2.1-2.1C7.16,32.52,5.8,28.61,5.8,28.61z"/>
	<path class="st10" d="M27.75,19.9c0,0-0.75,0.3-0.9,1.05c-0.15,0.75,0.3,0.9,0.3,0.9c0.15,0.45,0.6,0.6,0.9,0.75
		c0.6,0.15,0.6,0.3,0.75,0.45c0.15,0.15,1.2,0,1.2,0s0.6,0.45,0.75,0.75c0.15,0.15,0.15,0.3,0.15,0.45c0,0-0.45-0.3-0.9-0.15
		c-0.3,0.15-0.75,0.15-1.05,0.3c-0.15,0-0.45,0-0.75,0c0,0,0.9-0.15,0.9-0.45s-0.45-0.45-0.45-0.45l-1.2,0.15l-2.55,0.45
		c-0.15,0.3-0.45,0.45-0.75,0.6c-0.45,0.3-0.45,0.3-0.45,0.3s0-0.9,0.3-1.05c0.15-0.15,0.3-0.3,0.45-0.3c0.15,0,0.3-0.15,0.45-0.15
		c0,0,0.3-0.6,0-0.6s-0.6,0.45-0.6,0.45c0.3-0.45,0.6-0.9,1.05-1.2c0.6-0.45,0.75-0.75,0.45-1.05
		C25.79,20.35,27.45,19.74,27.75,19.9 M19.48,32.97c0,0-1.05,0.6-1.95,0.45s-1.2-0.6-1.2-0.6s0.6-1.05,1.35-0.75
		C18.58,32.22,19.48,32.97,19.48,32.97z M22.19,32.37c0,0,0.3,0.15,1.05,0.15c0.75,0,1.05-0.3,1.05-0.3
		c-0.15-0.15-0.45-0.15-0.6-0.15c-0.45-0.15-0.6-0.15-0.75,0c-0.15,0-0.15,0-0.3,0.15C22.49,32.37,22.34,32.37,22.19,32.37
		L22.19,32.37z M15.12,37.63c0,0-1.65-0.3-1.8,0.15c0,0.45,1.35,0.6,1.8,0.45S15.12,37.63,15.12,37.63z M13.62,20.5
		c0,0,1.35,0.9,1.5,1.65c0.15,0.75,0.15,0.9,0.15,0.9s-0.9-0.3-1.05-0.3c-0.15,0-0.15,0-0.3,0c0,0,0.9,0.6,0.75,1.05
		c-0.3,0.45-2.4-0.15-2.4-0.15h-0.45c0.15-0.15,0.3-0.45,0.45-0.6c0.3-0.45,0.45-0.45,0.45-0.45s-1.65,0.15-2.55,0.9
		c-0.9,0.75-1.05,2.1-1.05,2.1c0.6,0.45,1.35,0.75,1.95,0.9c1.05,0.15,1.5,0,1.5,0s-1.65,0-2.1-0.3c-0.45-0.45,0.15-0.75,0.9-0.9
		c0.75,0,3.46-0.45,4.21-0.3c0.9,0.15,1.05,0.3,1.05,0.3s0-0.75-0.45-1.2c-0.15-0.15-0.3-0.3-0.6-0.45c0.3,0.3,0.75,0.45,1.05,0.75
		c0.75,0.6,0.9,0.75,0.9,0.75s0.45-1.05,0-1.95c-0.3-1.05-1.8-2.4-1.8-2.4L13.62,20.5z"/>
	<path class="st11" d="M10.16,43.49c-1.2-1.35-2.71-4.06-3.16-5.41s-1.35-6.61-1.2-10.22s1.5-6.31,1.5-6.31s-0.9,1.05-1.5,0.9
		C5.2,22.3,4.75,20.5,4.75,20.5c-0.15,0-0.3,0-0.45,0.15c0,2.4,0.15,4.96,0.6,6.46c0,0,0.15,5.11,0.6,7.21
		c0.45,2.1,1.5,4.81,2.1,6.16c0.6,1.2,0.6,1.35,0.6,1.35s0,0,0,0.15c0.15,0,0.15,0.15,0.15,0.3c0.3,0,0.45,0.15,0.45,0.3l0,0
		c0,0,0.6,0.6,0.9,0.9c0.3,0.3,1.8,1.35,1.8,1.35S11.37,44.69,10.16,43.49z"/>
	<path class="st11" d="M34.81,15.84L34.81,15.84v-0.15l0,0v-0.15l0,0v-0.15l0,0v-0.15l0,0v-0.15l0,0v-0.15l0,0v-0.15l0,0v-0.15l0,0
		v-0.15l0,0c0,0,0,0,0-0.15l0,0c0,0,0,0,0-0.15l0,0v-0.15l0,0v-0.15l0,0c0,0,0,0,0-0.15l0,0v-0.15l0,0l0,0l0,0l0,0l0,0l0,0l0,0l0,0
		l0,0l0,0l0,0l0,0l0,0l0,0l0,0l0,0l0,0l0,0l0,0l0,0l0,0l0,0l0,0l0,0l0,0l0,0l0,0l0,0l0,0l0,0l0,0l0,0l0,0l0,0l0,0l0,0l0,0l0,0l0,0
		l0,0l0,0l0,0l0,0l0,0l0,0l0,0l0,0l0,0l0,0l0,0l0,0l0,0l0,0l0,0l0,0l0,0l0,0l0,0l0,0l0,0l0,0l0,0l0,0l0,0l0,0l0,0l0,0l0,0l0,0l0,0
		l0,0l0,0l0,0l0,0l0,0l0,0l0,0l0,0l0,0l0,0c-0.45-1.05-1.05-2.55-1.8-3.61c-0.15,0-0.3,0-0.6,0h-0.6l0,0l3.31,6.76L34.81,15.84z"/>
	<path class="st11" d="M33.76,40.64L33.76,40.64c0,0,0.9-3.61,1.35-5.71c0.45-2.1,0.9-4.06,0.75-4.66c-0.15-0.75-0.3-3.76-0.3-4.36
		s-0.15-1.65-0.15-2.55c0-0.3,0-1.35-0.15-2.71V20.5l0,0l0,0v-0.15l0,0V20.2l0,0v-0.15l0,0V19.9l0,0c0-0.15,0-0.3,0-0.3l0,0v-0.3
		l0,0v-0.45l0,0v-0.15l0,0c0-0.15,0-0.3,0-0.45l0,0v-0.45l0,0v-0.15l0,0l0,0v-0.15l0,0c0-0.15,0-0.3,0-0.3l0,0v-0.15l0,0l0,0l0,0
		v-0.15l0,0L31.5,9.98c0,0,1.8,5.26,2.1,7.97c0.15,0.9,0.15,1.5,0.3,2.1c-0.15,0.45-0.45,0.75-0.75,1.05c0,0,1.95,3.01,2.1,6.61
		s-0.15,7.06-0.75,10.07c-0.6,2.4-1.8,4.36-2.25,5.11h0.15c0.15-0.3,0.45-0.6,0.9-0.75l0.15-0.15l0.15-0.15
		c0.15-0.15,0.15-0.15,0.3-0.3C33.61,40.79,33.61,40.64,33.76,40.64z"/>
	<path class="st4" d="M33.76,40.79C33.76,40.64,33.76,40.64,33.76,40.79v-0.45l-0.15,0.15c-0.15,0.15-2.55,2.4-2.55,2.4
		S33.01,41.54,33.76,40.79"/>
	<path class="st13" d="M4.9,27.11c0,0-0.45-4.51,0.3-7.66c0.6-3.16,0.9-4.06,0.9-4.06l-0.45,0.45c0,0,0.3-1.8,0.75-2.71
		c0.45-0.9,0.6-1.05,0.6-1.05l-0.6,0.6l0.45-1.2l-0.6,0.75c0,0,0.3-1.05,0.9-1.65c0.3-0.3,0.45-0.6,0.75-0.9
		c0,0,1.35,0.15,3.01-0.45s2.55-1.2,4.06-1.2s2.25,0.15,2.25,0.15l-0.75-0.6l1.95,0.6l-0.6-0.45l1.05,0.6l-0.15-0.6l0.6,0.45
		l0.15-0.6l0.45,0.6l0.3-0.45l0.15,0.75l0.45-0.9l0.3,0.3l0.45-0.45v0.45l0.75-0.9v0.6l1.8-0.45l0.3,0.15l0.3-0.3l0.45,0.45
		l0.15-0.3l0.45,0.6l1.05-0.3L26.7,7.57c0,0,1.35,0.3,2.25,0.6c0.45,0.15,0.75,0.3,1.2,0.45l-0.9-0.15c0,0,1.2,0.15,2.1,0.9
		s1.2,0.9,1.2,0.9l-0.45-0.15l0.75,0.6l-0.45-0.15l0.6,0.75l-0.6-0.3l0.9,1.2l-0.6-0.15l1.05,1.2l-0.75-0.45l1.05,1.35l-0.9-0.6
		l0.75,1.2l-0.75-0.45l0.45,0.75l-0.6-0.3l0.9,1.2l-0.45-0.3l0.45,0.75l-0.6-0.3l1.2,1.65l-0.45-0.45l0.6,1.2l-0.3-0.45l0.45,1.2
		l-0.45-0.45l0.6,1.5l-0.45-0.45l0.3,0.75l-0.15-0.15l0.3,0.45l-0.3-0.3l0.3,0.6l-0.3-0.3l0.3,0.6l-0.3-0.3l0.45,1.05l-0.3-0.45
		l0.45,1.35l-0.3-0.45l0.3,0.9l-0.45-0.45l0.6,1.5l-0.15-0.15l0.15,1.05l0.15-0.15l-0.15-0.45l0.3,0.15l-0.15-0.9l0.15,0.15
		l-0.15-0.75l0.45,0.15l-0.3-0.9l0.6,0.45l-0.45-0.75l0.3,0.15l-0.3-0.6l0.3,0.15l-0.3-0.75l0.15-0.9l-0.45-1.35
		c0,0,0.15-2.25-0.15-3.31c-0.3-1.05-0.45-2.4-0.45-2.4l0.3,0.15l-0.45-0.9l0.45,0.15l-0.9-1.2l0.6,0.3c0,0-0.6-2.1-3.16-4.96
		c-2.55-3.01-3.91-3.91-3.91-3.91l-0.45,0.15V2.91h-0.3L27,2.46l-0.3,0.3c-0.75-0.6-1.5-1.2-2.4-1.5c-1.5-0.6-1.8-0.6-1.8-0.6
		l-0.3,0.15l-0.15-0.3l-0.15,0.3l-0.15-0.3l-0.15,0.3l-0.15-0.45l-0.6,0l-0.45-0.15c-1.35-0.15-2.86,0-4.21,0.45
		c-2.25,0.6-3.16,1.35-3.16,1.35l-0.3-0.15l0.3,0.3h-0.6l0.15,0.3l-0.45-0.15l0.15,0.45c-1.35,0.45-2.55,1.35-3.61,2.25
		c-1.5,1.65-1.95,2.4-1.95,2.4h-0.3l0.3,0.45H6.26l0.3,0.3c0,0-0.3-0.3-1.2,1.2S4,11.48,4,11.48l0.45-0.3L4,11.93h0.15L4,12.23h0.15
		l-0.6,0.9c0,0,0.15-0.3,0.15-0.15c0,0.15,0,1.65-0.15,2.55c0,0.9,0,4.36,0,4.81c0,0.45,0,0.6,0,0.6l0.3-0.45c0,0-0.3,0.75-0.3,1.5
		c0,0.75,0.15,1.65,0.15,1.65l0.15-0.3c-0.15,0,0,0.3,0,0.9c0,0.45,0.15,0.9,0.3,1.35H4.3c0,0.3,0,0.6,0.15,0.75
		C4.6,26.81,4.9,27.41,4.9,27.11"/>
	<path class="st14" d="M32.86,11.78l0.45,0.6l-0.6-0.3l1.05,1.2l-0.75-0.45l1.05,1.35l-0.9-0.6l0.75,1.2l-0.75-0.45l0.45,0.75
		l-0.6-0.3l0.9,1.2l-0.45-0.3l0.45,0.75l-0.6-0.3l1.2,1.65l-0.45-0.45l0.6,1.2l-0.3-0.45l0.45,1.2l-0.45-0.45l0.6,1.5l-0.45-0.45
		l0.3,0.75l-0.15-0.15l0.3,0.45l-0.3-0.3l0.3,0.6l-0.3-0.3l0.3,0.6l-0.3-0.3l0.45,1.05l-0.3-0.45l0.45,1.35l-0.3-0.45l0.3,0.9
		l-0.45-0.45l0.6,1.5l-0.15-0.15l0.15,1.05l0.15-0.15l-0.15-0.45l0.3,0.15l-0.15-0.9l0.15,0.15l-0.15-0.75l0.45,0.15l-0.3-0.9
		l0.6,0.45l-0.45-0.75l0.3,0.15l-0.3-0.6l0.3,0.15l-0.3-0.75c0,0-0.45-3.01-0.9-4.36c-0.3-0.75-0.6-1.5-0.9-2.25l0.45,0.15
		c0,0-0.45-2.4-0.9-3.01C33.46,12.08,33.16,11.78,32.86,11.78"/>
	<path class="st15" d="M25.94,7.72l0.9-0.3L26.7,7.57c0,0,1.35,0.3,2.25,0.6c0.45,0.15,0.75,0.3,1.2,0.45l-0.9-0.15
		c0,0,1.2,0.15,2.1,0.9s1.2,0.9,1.2,0.9l-0.45-0.15l0.3,0.45c0.6,0.3,1.05,0.6,1.65,0.9c0,0,0-0.15-0.75-1.65
		c-0.3-0.6-0.6-1.2-0.9-1.8c-0.15-0.3-0.45-0.6-0.75-0.9c-0.9-1.05-1.8-1.95-2.4-2.55c-1.95,0.15-4.66,1.2-4.66,1.5
		C24.59,6.37,25.34,7.12,25.94,7.72 M5.05,20.8c0-0.45,0.15-0.9,0.15-1.35c0.6-3.16,0.9-4.06,0.9-4.06l-0.45,0.45
		c0,0,0.3-1.8,0.75-2.71c0.45-0.9,0.6-1.05,0.6-1.05l-0.6,0.6l0.45-1.2l-0.6,0.75c0,0,0.3-1.05,0.9-1.65c0.3-0.3,0.45-0.6,0.75-0.9
		c0,0,1.35,0.15,3.01-0.45s2.55-1.2,4.06-1.2s2.25,0.15,2.25,0.15l-0.75-0.6l1.05,0.3c0.75-1.05,1.35-1.95,1.5-2.25
		c0.45-0.9,0.9-3.46,1.2-5.56c-1.35-0.15-2.71,0-4.06,0.45c-2.25,0.6-3.16,1.35-3.16,1.35l-0.3,0l0.3,0.3h-0.6l0.15,0.3l-0.45-0.15
		l0.15,0.45c-1.35,0.45-2.55,1.35-3.61,2.25c-0.75,0.75-1.2,1.35-1.5,1.8c-0.3,0.75-0.75,1.65-0.9,2.1L5.8,9.83l1.05,0.15
		c0,0-0.9,0.75-1.35,1.35l-0.75,0.75l0.9-0.6l-0.9,1.2l0.75-0.45l-0.9,1.05l1.05-0.3l-1.8,1.5c0,0.45,0,0.75,0,1.2
		c0,0.3,0,1.2,0,2.1c0.3,0.15,0.75,0.3,0.9,0.9C4.9,19.9,5.05,20.8,5.05,20.8L5.05,20.8z"/>
	<path class="st4" d="M7.76,9.83c0.15-0.15,0.15-0.3,0.15-0.3s1.35,0.15,3.01-0.45s2.55-1.2,4.06-1.2s2.25,0.15,2.25,0.15
		l-0.75-0.45l1.95,0.6l-0.6-0.45l1.05,0.6l-0.15-0.6l0.6,0.45l0.15-0.6l0.45,0.6l0.3-0.45l0.15,0.75l0.45-0.9l0.3,0.3l0.45-0.45
		v0.45l0.75-0.9v0.6l1.8-0.45l0.3,0.15l0.3-0.3l0.45,0.45l0.15-0.3l0.45,0.6l1.05-0.3L26.7,7.57c0,0,1.35,0.3,2.25,0.6
		c0.45,0.15,0.75,0.3,1.2,0.45l-0.9-0.15c0,0,1.2,0.15,2.1,0.9c0.3,0.15,0.45,0.3,0.6,0.45c0.45,0.15,0.9,0.3,1.35,0.45
		c0,0-0.15,0-0.6-0.45c-0.6-0.45-2.55-1.95-2.55-1.95l1.5,0.45l-1.5-2.1l0.9,0.3l-0.45-0.9c-1.65-1.8-2.55-2.4-2.55-2.4L27.6,3.36
		V2.91h-0.3l-0.15-0.45l-0.3,0.3c-0.75-0.6-1.5-1.2-2.4-1.5c-1.5-0.6-1.8-0.6-1.8-0.6l-0.3,0.15l-0.15-0.3l-0.15,0.3l-0.15-0.3
		l-0.15,0.3l-0.15-0.45l-0.75,0l-0.45-0.15c-1.35-0.15-2.86,0-4.21,0.45c-2.25,0.6-3.16,1.35-3.16,1.35l-0.3-0.15l0,0l0.3,0.3h-0.6
		l0.15,0.3l-0.45-0.15l0,0l0.15,0.45c-0.6,0.15-1.05,0.45-1.5,0.6c-0.75,0.9-1.5,1.8-2.1,2.86l0.9-0.15c0,0-0.15,0-0.75,0.45
		c-0.6,0.45-1.5,1.05-1.5,1.05l1.05-0.3L7.01,8.92l1.2-0.3c0,0,0,0-0.6,0.45c-0.45,0.15-0.9,0.45-1.35,0.75c0,0,0.15,0,0.6-0.15
		C7.16,9.68,7.46,9.68,7.76,9.83"/>
	<path class="st15" d="M21.13,3.81c0.6,1.35,0.6,1.5,0.3,2.86C21.43,5.92,21.28,4.72,21.13,3.81"/>
	<path class="st15" d="M20.83,4.11c0.6,1.8,0.3,0.9,0.45,2.71l-0.15-0.45C20.83,5.17,20.83,5.32,20.83,4.11"/>
	<path class="st15" d="M19.93,4.26c0.9,1.35,0.75,1.2,0.9,2.71C20.53,6.07,20.23,5.17,19.93,4.26"/>
	<path class="st15" d="M18.88,4.41c1.5,1.35,0.9,1.35,1.5,2.86C19.78,6.37,19.63,5.32,18.88,4.41"/>
	<path class="st15" d="M18.28,4.57c1.5,1.35,1.05,1.35,1.5,3.16C19.48,6.67,19.03,5.47,18.28,4.57"/>
	<path class="st15" d="M17.23,4.41c1.65,1.2,1.65,1.2,1.8,3.16l0,0l0,0C18.73,6.22,18.28,5.47,17.23,4.41"/>
	<path class="st15" d="M22.19,6.82c0.15-0.6,0.15-1.5,0.3-2.25v-0.3C22.64,5.77,22.79,5.47,22.19,6.82"/>
	<path class="st15" d="M22.34,4.41c0,1.35,0,1.35-0.3,2.55C22.04,5.62,21.89,5.92,22.34,4.41"/>
	<path class="st15" d="M23.09,4.41c0.15,1.8,0,1.35-0.3,2.71C22.79,6.22,22.94,5.32,23.09,4.41"/>
	<path class="st15" d="M23.54,4.11c0,1.5,0,1.35-0.6,2.71C23.24,6.07,23.39,5.02,23.54,4.11"/>
	<path class="st15" d="M24.44,4.41c-0.15,1.65-0.15,1.2-1.05,2.55l0.15-0.3l0.3-1.05C24.74,3.81,24.14,5.47,24.44,4.41"/>
	<path class="st15" d="M16.48,4.57c1.2,0.9,1.8,1.35,2.4,2.86C18.43,6.52,17.08,5.32,16.48,4.57"/>
	<path class="st15" d="M15.12,4.57c1.8,0.75,2.4,0.75,3.46,2.71C17.83,6.37,16.02,5.17,15.12,4.57"/>
	<path class="st15" d="M13.92,4.87c2.25,0.9,2.4,1.05,4.21,2.55l-0.3-0.15l-0.45-0.3C16.32,6.22,15.12,5.47,13.92,4.87"/>
	<path class="st15" d="M13.77,5.62c2.1,0.6,1.95,0.45,3.61,1.8C16.48,6.67,14.97,6.07,13.77,5.62"/>
	<path class="st15" d="M20.38,3.66c0.45,1.2,0.15,0.3,0.45,2.1C20.23,3.96,20.53,5.02,20.38,3.66"/>
	<polygon class="st15" points="19.18,4.26 19.78,4.72 20.08,5.62 19.48,4.87 	"/>
	<path class="st15" d="M24.89,4.26c-0.45,1.35-0.3,1.35-1.05,2.55v-0.3C24.14,5.77,24.44,5.02,24.89,4.26"/>
	<polygon class="st15" points="23.99,4.72 23.99,5.32 23.54,6.07 23.69,5.17 	"/>
	<path class="st15" d="M24.89,5.02c-0.15,0.9-0.15,1.2-0.75,1.8C24.29,6.67,24.74,5.32,24.89,5.02"/>
	<path class="st15" d="M28.8,7.27c-1.05,0-2.1,0-3.01,0.15C26.85,6.97,27.6,6.97,28.8,7.27"/>
	<path class="st15" d="M25.79,6.97c1.65-0.45,1.5-0.15,2.86-0.3C27.15,7.12,27.15,6.97,25.79,6.97"/>
	<path class="st15" d="M25.49,6.82c1.95-0.75,0.6-0.45,2.55-0.45c-1.95,0.45-0.45,0.3-2.1,0.3L25.49,6.82z"/>
	<path class="st15" d="M24.89,6.97c1.35-1.05,1.35-0.9,2.86-1.2C26.7,6.07,25.64,6.52,24.89,6.97"/>
	<path class="st15" d="M24.29,6.82c1.2-1.5,1.05-1.2,2.55-2.1C25.94,5.47,25.19,6.07,24.29,6.82"/>
	<path class="st15" d="M25.04,6.67c0.75-0.75,0.6-0.6,1.65-0.9C26.09,6.22,25.64,6.22,25.04,6.67"/>
	<path class="st15" d="M27.3,6.22l0.3-0.15h0.6C27.45,6.37,27.75,6.37,27.3,6.22"/>
	<path class="st15" d="M27.6,7.57c0.3-0.3,1.95-0.15,2.4-0.15c-0.6,0.15-0.9,0.3-1.35,0.15C28.5,7.57,27.75,7.42,27.6,7.57"/>
	<path class="st15" d="M26.24,4.11c-0.75,1.05,0,0.45-1.2,1.5C25.79,4.26,25.19,5.02,26.24,4.11"/>
	<polygon class="st15" points="19.48,2.61 19.78,3.21 19.93,4.11 19.48,3.21 	"/>
	<path class="st15" d="M20.98,2.61c0.6,1.35,0.3,0.3,0.6,2.25C20.83,2.91,21.28,4.26,20.98,2.61"/>
	<path class="st15" d="M20.38,6.22c0.15,0.45,0.15,0.15,0,0.75l-0.15-0.45L20.38,6.22z"/>
	<path class="st15" d="M21.74,4.26c0.15,1.2,0.15,1.65,0,2.86C21.59,6.07,21.59,5.17,21.74,4.26"/>
	<path class="st13" d="M21.28,3.96c0.3,1.5,0.3,0.45,0.15,2.55C21.13,4.11,21.28,5.62,21.28,3.96"/>
	<path class="st13" d="M22.49,5.02c0,1.05,0.15,0.45-0.45,1.95C22.34,4.87,22.04,6.37,22.49,5.02"/>
	<path class="st13" d="M19.03,5.32c-0.15,0,0.3,0.6,0.3,0.75c0,0,0,0.45,0.15,1.05l-0.3-0.45C19.18,6.67,18.73,5.47,19.03,5.32"/>
	<path class="st4" d="M18.13,21.55c0,0-0.45-0.6-0.9-0.9c-0.15-0.15-0.45-0.3-0.75-0.3c0,0,0.6,0.45,0.9,0.9
		c0.3,0.45,0.45,0.6,0.45,0.6c-0.15-0.3-0.15-0.45-0.3-0.75s-0.15-0.3-0.15-0.3S17.68,21.25,18.13,21.55 M17.08,21.25
		c-0.3-0.3-0.75-0.6-1.05-0.75c-0.6-0.45-1.05-0.3-1.05-0.3c0.15,0,0.45-0.15,0.75-0.15h0.45c0,0-0.6-0.15-1.2,0l-0.6,0.15
		c0.15-0.15,0.3-0.15,0.45-0.3c0.3-0.15,0.45-0.15,0.45-0.15c-0.3,0-0.6,0.15-0.9,0.15c-0.15,0-0.3,0.15-0.45,0.15l0.6-0.45
		l-0.75,0.15l0.6-0.3l-1.05,0.3l0.75-0.3l-1.35,0.3l0.75-0.3l-1.2,0.3l0.45-0.15l-0.9,0.3l0.45-0.3l-0.75,0.3l0.75-0.45
		c-0.3,0.15-0.6,0.15-0.9,0.3c-0.15,0-0.3,0.15-0.45,0.15c0.3-0.15,0.45-0.3,0.75-0.45c0.3-0.15,0.3-0.15,0.3-0.15
		s-0.9,0.15-1.05,0.3c-0.15,0.15-0.3,0.15-0.3,0.15l0.3-0.3l-0.6,0.15l0.3-0.3l-0.9,0.3l0.6-0.3c-0.45,0.15-0.9,0.3-1.2,0.6
		c-0.75,0.45-0.9,0.6-0.9,0.6c0.15-0.15,0.3-0.45,0.45-0.6c0.15-0.15,0.3-0.3,0.45-0.3c-0.6,0.15-1.05,0.6-1.35,1.05
		c-0.6,0.75-0.6,0.9-0.6,0.9V20.8l-0.45,1.35c0,0,0.6-0.45,1.5-0.45s1.65,0,1.65,0c-0.45-0.15-1.05-0.15-1.5-0.15
		c-0.3,0-0.6,0-1.05,0c0.6-0.15,1.2-0.3,1.8-0.3c1.05,0,1.5,0,1.5,0c-0.45-0.15-0.9-0.15-1.35-0.15c-0.3,0-0.6,0-0.9,0
		c0,0,0.3-0.3,1.8-0.15s2.25,0.45,2.25,0.45l-0.6-0.15c0,0,1.35,0,2.4,0.3c1.05,0.3,1.95,0.6,1.95,0.6l-1.2-0.45
		c0,0,0.9,0.15,1.65,0.6c0.6,0.45,0.75,0.45,0.75,0.45c-0.3-0.3-0.6-0.6-1.05-0.75c-0.6-0.3-0.75-0.3-0.75-0.3s1.05,0.3,1.5,0.6
		c0.45,0.3,0.45,0.3,0.45,0.3s-0.3-0.45-1.05-0.9c-0.75-0.45-0.9-0.6-0.9-0.6l1.2,0.6l-0.9-0.6L17.08,21.25z M24.59,23.05
		c0,0,0.6-1.05,2.55-1.2c1.95-0.15,3.61,0.75,3.76,0.75s0.15,0.15,0.15,0.15s0-0.15-0.3-0.3c-0.3-0.15-2.1-0.9-3.61-0.75
		C25.64,21.85,24.74,22.45,24.59,23.05L24.59,23.05z M25.79,24.7c0,0,0.9,0.15,1.8,0.3c0.75,0,0.9,0.15,0.9,0.15
		S26.54,25.16,25.79,24.7L25.79,24.7z M9.56,23.95c0,0,1.2-1.2,3.46-1.2s3.01,1.05,3.01,1.05c-0.45-0.6-1.05-1.05-1.65-1.2
		C13.32,22.3,10.31,22.75,9.56,23.95z M14.67,25.16c0,0-0.75,0.3-1.35,0.45s-0.75,0.3-0.75,0.3S13.92,25.76,14.67,25.16L14.67,25.16
		z M17.53,29.06c0,0-1.2,0.3-1.65,1.35c-0.45,0.9-0.15,1.95,0.3,2.1c0.45,0.15,0.75,0.15,0.75,0.15s0.45,0.45,0.75,0.45
		c0.15,0,0.3,0,0.3,0c-0.3,0.15-0.45,0.15-0.75,0c-0.45-0.15-0.45-0.3-0.45-0.3s-0.9,0-1.2-0.75
		C15.12,31.32,15.42,29.51,17.53,29.06L17.53,29.06z M16.93,32.52c0,0,0.45-0.9,1.35-0.3c0.9,0.6,1.5,1.35,2.1,1.35s0.75,0,1.2-0.45
		c0.45-0.45,1.05-1.05,1.65-1.05c0.45,0,0.75,0.15,1.05,0.45l0.15,0.15l-0.15-0.15c0,0-0.15,0.15-0.6,0.15c-0.3,0-0.75,0-1.05-0.15
		c0,0-0.15,0-0.6,0.45c-0.45,0.45-0.6,0.9-1.5,0.9c-0.6,0-1.2-0.3-1.5-0.75c0,0-0.6-0.3-1.05-0.45c-0.45-0.15-0.45-0.15-0.45-0.15
		C17.23,32.22,17.08,32.37,16.93,32.52z M24.14,33.12c0.15-0.15,0.3-0.15,0.6-0.3c0.45-0.15,0.75-0.45,0.9-1.05
		c0.15-0.6-0.15-1.5-0.6-1.8c-0.45-0.3-0.6-0.3-0.6-0.3s0.75,0.15,1.05,0.9C25.79,31.17,25.94,32.97,24.14,33.12L24.14,33.12z
		 M24.14,23.65c-0.15,0.15-0.15,0.3-0.15,0.6c0,0.15-0.15,0.3-0.15,0.6C23.69,24.7,23.69,23.8,24.14,23.65L24.14,23.65z
		 M18.43,23.35c0,0,0.3,1.05,0.15,1.95c-0.3,0.9-0.3,1.2-0.3,1.2C18.73,25.61,18.88,24.4,18.43,23.35L18.43,23.35z M17.23,23.5
		c0,0.3,0,0.45,0,0.75c0,0.3,0,0.3,0,0.3l-0.75-0.45l0.9,0.9C17.38,25.01,17.68,24.1,17.23,23.5L17.23,23.5z M22.49,21.7
		c0-0.3,0-0.45,0-0.75c0-0.15,0.15-0.45,0.3-0.6c0,0-0.15,0.45-0.3,0.75c-0.15,0.3,0,0.3,0,0.3s0.15-0.6,0.45-0.9
		c0.15-0.15,0.3-0.3,0.6-0.45c-0.3,0.15-0.45,0.3-0.6,0.6c0,0.15-0.15,0.3-0.15,0.45c0,0,0.45-0.9,1.05-1.05
		c0.3,0,0.6-0.15,0.9-0.15c-0.15,0-0.45,0.15-0.6,0.15c-0.15,0-0.15,0.15-0.3,0.15c0.45-0.15,0.75-0.3,1.2-0.3c0.45,0,0.6,0,0.6,0
		c-0.15-0.15-0.3-0.15-0.45-0.15c-0.15,0-0.3,0-0.3,0c0.3,0,0.6-0.15,0.9-0.15c0.15,0,0.3,0,0.45,0c-0.15,0-0.45,0-0.6,0
		c-0.3,0-0.3,0-0.3,0s0.75-0.15,1.05,0l0.6,0.15c-0.45-0.15-0.75-0.15-0.9-0.15s-0.3,0-0.45,0c0.3,0,0.6-0.15,0.9,0
		c0.3,0,0.6,0.15,0.6,0.15c-0.15-0.15-0.3-0.15-0.6-0.15c-0.3,0-0.6-0.15-0.6-0.15c0.3,0,0.75,0,1.05,0c0.15,0,0.45,0.15,0.6,0.15
		l-0.6-0.3l1.05,0.15L27,19.14l1.05,0.15l-0.75-0.3l1.65,0.45l-1.05-0.75l1.65,0.6l-0.9-0.75l1.05,0.75l-0.75-0.75l1.5,0.75
		l-1.05-0.9c0,0,0.45,0.15,0.9,0.45c0.3,0.15,0.45,0.15,0.75,0.15l-1.5-0.6c0,0,1.2,0.3,1.35,0.45c0.15,0.15,0.45,0.15,0.45,0.15
		l-1.05-0.75c0.3,0.15,0.6,0.3,1.05,0.45c0.15,0.15,0.3,0.15,0.45,0.3l-0.9-0.75c0,0,1.05,0.45,1.5,1.2c0.45,0.75,0.6,0.9,0.6,0.9
		c-0.15-0.3-0.45-0.6-0.75-0.75c-0.15-0.15-0.45-0.3-0.75-0.45c0,0,0.75,0.6,1.05,1.2c0.3,0.45,0.3,0.6,0.3,0.6
		c-0.3-0.3-0.6-0.6-0.9-0.9c-0.45-0.45-1.2-0.75-1.2-0.75s1.35,1.05,1.5,1.35c0.15,0.15,0.15,0.15,0.15,0.15s-0.15,0-0.75-0.3
		c-0.45-0.15-0.9-0.15-1.35-0.15c0,0,0.9,0,1.2,0h0.3c0,0-0.3-0.45-1.8-0.45c-1.35,0-1.95,0.6-1.95,0.6c0.15-0.15,0.3-0.3,0.6-0.45
		c0.15-0.15,0.6-0.3,0.6-0.3S28.2,20.2,27.6,20.5c-0.3,0.3-0.75,0.6-0.75,0.6l1.05-0.6l-1.5,0.6l0.6-0.45l-1.35,0.6l0.75-0.6
		c-0.45,0.15-0.9,0.45-1.35,0.6c-0.6,0.3-0.6,0.45-0.6,0.45l0.75-0.6c0,0-1.05,0.45-1.35,0.75c-0.15,0.15-0.3,0.15-0.45,0.3
		l0.75-0.75L23.09,22l0.9-0.75l-1.05,0.6c0.15-0.3,0.3-0.45,0.6-0.6c0.15-0.15,0.45-0.3,0.6-0.3c-0.3,0-0.75,0.3-0.9,0.45
		c-0.45,0.45-0.45,0.6-0.45,0.6c0-0.3,0.15-0.45,0.3-0.75c0.15-0.3,0.3-0.3,0.3-0.3s-0.45,0.3-0.6,0.6
		C22.64,21.55,22.64,21.7,22.49,21.7l0.15-0.3L22.49,21.7z"/>
	<path class="st4" d="M30.9,24.1l-0.45-0.75h0.15c0,0-1.2-1.35-3.31-1.05s-3.01,1.5-3.16,1.8c0,0.15-0.15,0.3,0,0.6
		c0,0,0.3-0.3,0.9-0.45c0.75,0,3.01,0,3.76-0.15c0.9-0.3,0.9-0.45,0.9-0.45l0.45,0.3c0,0-0.3,0.15-1.2,0.45
		c-0.9,0.3-1.35,0.15-1.35,0.15l0.75,0.15l0-0.3c0,0,0.45,0,0.75-0.15c0.3,0,0.3-0.15,0.3-0.15l0.3,0.15l-0.15-0.15
		c0.15,0,0.45,0,0.6-0.15c0.15,0,0.15-0.15,0.3-0.15L30.9,24.1z"/>
	<path class="st16" d="M24.89,23.65c-0.15,0.15-0.15,0.15-0.15,0.3l0.15,0.3c0,0,0.15,0,0.3,0C25.04,23.95,25.04,23.8,24.89,23.65
		L24.89,23.65 M29.7,23.5c0,0-0.45-0.6-1.35-0.9s-2.25,0.3-2.86,0.6c-0.15,0.15-0.3,0.15-0.3,0.3c0,0.15,0,0.3,0.15,0.3
		c0,0.15,0.15,0.15,0.15,0.15c0.3,0,0.6,0,0.9,0c0.75,0,1.35,0,2.1,0C28.95,23.95,29.7,23.5,29.7,23.5L29.7,23.5z"/>
	<path class="st12" d="M28.35,23.95c0.45-0.15,0.9-0.15,1.2-0.45c-0.15-0.15-0.3-0.3-0.45-0.3c-0.45-0.15-0.45-0.3-0.45-0.3
		S28.65,23.65,28.35,23.95L28.35,23.95"/>
	<path class="st17" d="M25.04,24.1c-0.15-0.15-0.15-0.3-0.15-0.45c0,0,0,0,0.15-0.15v0.15C25.04,23.95,25.04,23.95,25.04,24.1
		L25.04,24.1 M26.54,22.75c-0.6,0.15-1.05,0.3-1.5,0.75c0,0.15,0,0.3,0.15,0.3c0,0.15,0.15,0.15,0.15,0.15c0.3,0,0.6,0,0.9,0
		c0.15,0,0.3,0,0.45,0V23.8C26.7,23.65,26.54,22.9,26.54,22.75C26.54,22.9,26.54,22.75,26.54,22.75z"/>
	<path class="st18" d="M26.24,23.2c0,0-0.6,0.15-0.75,0.3c-0.15,0.3-0.15,0.3-0.15,0.3h1.5L26.24,23.2z"/>
	<path class="st19" d="M24.89,23.65c-0.15,0.15-0.15,0.15-0.15,0.3l0.15,0.3c0,0,0.15,0,0.3,0C25.04,23.95,25.04,23.8,24.89,23.65
		L24.89,23.65"/>
	<path class="st4" d="M28.35,22.75L28.35,22.75c-0.75-0.15-1.65,0-2.4,0.3c0,0.15,0,0.15,0,0.3c0,0.3,0.15,0.6,0.3,0.9
		c0.6,0,1.2,0,1.8,0C28.5,23.65,28.5,23.2,28.35,22.75"/>
	<g>
		<path class="st20" d="M27.3,22.75c0.3,0,0.45,0.15,0.45,0.45s-0.15,0.45-0.45,0.45c-0.3,0-0.45-0.15-0.45-0.45l0,0
			C26.85,22.9,27,22.75,27.3,22.75L27.3,22.75 M27.9,22.6c-0.6,0-1.05,0-1.5,0.15c-0.15,0.45,0,1.05,0.45,1.2H27
			c0.15,0,0.3,0,0.45,0c0.45-0.15,0.75-0.6,0.6-1.2C28.05,22.9,28.05,22.75,27.9,22.6L27.9,22.6z"/>
	</g>
	<path class="st12" d="M27.45,23.05c0.15,0,0.15,0.15,0.15,0.15l-0.15,0.15c-0.15,0-0.15-0.15-0.15-0.15l0,0
		C27.3,23.2,27.3,23.05,27.45,23.05"/>
	<path class="st12" d="M28.2,23.5c0.3,0,0.45,0,0.45,0.15c0,0.15-0.15,0.15-0.45,0.15c-0.3,0-0.45,0-0.45-0.15
		C27.75,23.5,27.9,23.5,28.2,23.5"/>
	<path class="st19" d="M24.59,23.95l0.15,0.15c-0.15,0-0.15,0.15-0.3,0.15C24.29,24.25,24.29,23.95,24.59,23.95"/>
	<path class="st21" d="M16.48,25.01c0,0-0.45-1.65-2.86-1.8c-2.4-0.15-3.46,1.05-3.91,1.35c-0.15,0.15-0.3,0.45-0.45,0.75
		c0.45-0.15,0.9-0.3,1.35-0.3c1.05,0,1.95,0,2.86-0.15C14.52,24.55,15.57,24.55,16.48,25.01"/>
	<path class="st22" d="M12.27,24.85c0.45,0,0.9-0.15,1.35-0.15c0.45-0.15,1.05-0.15,1.5-0.15l0,0c0,0,0.3-0.45-0.75-0.75
		c-0.9-0.3-2.71,0-2.86,0.15c-0.3,0.15-0.3,0.15-0.3,0.15s0.15,0.45,0.6,0.6C12.12,24.85,12.27,24.85,12.27,24.85"/>
	<path class="st4" d="M14.07,23.2c-0.15,0-0.3,0-0.45,0c-0.6,0-1.05,0-1.65,0.15c-0.3,0.45-0.15,1.2,0.3,1.65
		c0.45,0,1.05-0.15,1.5-0.15c0.15,0,0.3,0,0.45,0C14.37,24.25,14.37,23.65,14.07,23.2"/>
	<g>
		<path class="st20" d="M13.02,23.5c0.3,0,0.45,0.15,0.45,0.45s-0.15,0.45-0.45,0.45s-0.45-0.15-0.45-0.45l0,0
			C12.72,23.8,12.87,23.5,13.02,23.5L13.02,23.5 M13.62,23.2c-0.3,0-0.6,0-1.05,0c-0.45,0.3-0.6,0.9-0.3,1.2
			c0.15,0.15,0.3,0.3,0.45,0.45c0.3,0,0.45,0,0.75-0.15c0.45-0.3,0.6-0.75,0.3-1.2C13.77,23.35,13.62,23.2,13.62,23.2L13.62,23.2z"
			/>
	</g>
	<path class="st4" d="M15.42,24.4c-0.3-0.45-0.6-0.75-1.05-0.9c-1.05-0.45-2.86,0-3.31,0.6c0,0.15-0.15,0.15-0.15,0.3
		c0.15,0.15,0.45,0.45,1.05,0.45c0.9,0,1.8-0.3,2.4-0.3C14.97,24.4,15.27,24.55,15.42,24.4 M16.48,25.01c0,0-0.45-1.65-2.86-1.8
		c-2.4-0.15-3.46,1.05-3.91,1.35c-0.15,0.15-0.3,0.45-0.45,0.75c0.45-0.15,0.9-0.3,1.35-0.3c1.05,0,1.95,0,2.86-0.15
		C14.52,24.55,15.57,24.55,16.48,25.01L16.48,25.01z"/>
	<path class="st12" d="M13.17,23.65c0.15,0,0.15,0.15,0.15,0.15c0,0.15,0,0.3-0.15,0.3s-0.15-0.15-0.15-0.15l0,0
		C13.02,23.8,13.02,23.65,13.17,23.65L13.17,23.65"/>
	<path class="st12" d="M13.92,24.1c0.3,0,0.45,0,0.45,0.15c0,0-0.15,0.15-0.45,0.15s-0.45,0-0.45-0.15
		C13.47,24.25,13.62,24.1,13.92,24.1"/>
	<path class="st19" d="M14.37,37.63c0.9-0.3,1.8-0.6,2.71-1.05c1.35-0.6,1.5-0.6,2.25-0.45c0.75,0.3,1.05,0.3,1.65,0.15
		c0.6-0.15,1.2-0.6,1.95-0.3c0.75,0.15,1.5,0.45,2.1,0.75c0.6,0.3,1.2,0.6,1.5,0.6S27,37.48,27,37.63c0,0.15-0.45,0-0.75,0.3
		c-0.3,0.15-1.35,1.35-3.31,1.35s-2.1-0.15-2.1-0.15l0,0c0,0-0.15,0.15-1.2,0.15c-0.9,0-2.86-0.15-3.61-0.45
		c-0.75-0.45-0.9-0.6-1.2-0.75C14.52,37.93,13.92,38.08,14.37,37.63"/>
	<path class="st23" d="M21.13,37.63c0,0,0.45-0.9,1.65-0.9s1.8,0.45,2.1,0.45c0.3,0,0.45,0.3,0.3,0.45c-0.15,0.15-0.3,0.15-0.75,0.3
		c-0.45,0.15-0.9,0-1.5,0C22.34,37.93,20.98,37.93,21.13,37.63"/>
	<path class="st24" d="M14.37,37.63c0.9-0.3,1.8-0.6,2.71-1.05c1.35-0.6,1.5-0.6,2.25-0.45c0.6,0.15,0.9,0.3,1.2,0.3
		c0,0.3-0.15,0.75,0.15,1.05c0.3,0.3-1.8,0.75-2.86,1.05c-0.6,0.15-1.35,0.3-1.95,0.3c-0.6-0.3-0.75-0.6-1.05-0.6h-0.15l0,0
		C14.52,37.93,14.52,37.78,14.37,37.63"/>
	<path class="st25" d="M14.37,37.63c0.75-0.3,1.65-0.6,2.4-0.9c0,0.15,0.3,0.3,0.6,0.45c1.05,0.15,1.2,0,1.95,0.15
		c0.45,0,0.75,0.15,1.2,0.15c0,0,0.15,0.15-0.15,0.45c-0.3,0.3-0.9,1.05-1.65,1.2c-0.3,0-0.75,0-1.35,0.15
		c-0.6,0-1.05-0.15-1.35-0.3c-0.75-0.45-0.9-0.6-1.2-0.75C14.52,37.93,13.92,38.08,14.37,37.63"/>
	<path class="st4" d="M27,37.48v0.15c0,0.15-0.45,0-0.75,0.3c-0.3,0.15-1.35,1.35-3.31,1.35s-2.1-0.15-2.1-0.15l0,0
		c0,0-0.15,0.15-1.2,0.15c-0.9,0-2.86-0.15-3.61-0.45c-0.75-0.45-0.9-0.6-1.2-0.75c-0.3,0-0.75,0-0.6-0.3c0.6-0.15,1.2-0.3,1.8-0.3
		c1.05,0,1.95,0,2.25-0.15c0.3-0.15,0.15,0,0.15,0s0.6,0.3,1.2,0.3c0.6,0,0.9-0.15,1.05-0.15s0.3,0.15,0.3,0.15s1.5,0,1.95-0.15
		c0.45-0.15,0.45,0,0.6,0c0.6,0.15,1.2,0.15,1.8,0.15C26.24,37.48,26.7,37.48,27,37.48"/>
	<path class="st26" d="M26.39,37.78c0,0-0.15,0-0.15,0.15c-0.3,0.15-1.35,1.35-3.31,1.35s-2.1-0.15-2.1-0.15l0,0
		c0,0-0.15,0.15-1.2,0.15c-0.9,0-2.86-0.15-3.61-0.45c-0.6-0.3-0.75-0.6-1.05-0.6c0.75-0.3,1.65-0.45,2.55-0.45c1.5,0,3.76,0,5.26,0
		c1.35,0,2.86,0,3.16,0C26.09,37.63,26.24,37.78,26.39,37.78"/>
	<path class="st27" d="M22.49,37.63h0.3c0.3,0,0.45,0,0.75,0c0.45,0,1.05,0.15,1.5,0.3c-0.6,0.6-1.5,0.9-2.4,1.05
		c-1.5,0-1.65-0.15-1.65-0.15s-1.35,0.3-2.4,0c-1.05-0.3-1.2-0.75,0.3-0.9s2.25,0,2.25,0c0,0.15,0,0.15,0,0.15
		S21.59,37.78,22.49,37.63"/>
	<path class="st28" d="M17.83,39.28c-0.75,0-1.35-0.15-1.8-0.45c-0.6-0.3-0.75-0.6-1.05-0.6c0.75-0.3,1.65-0.45,2.55-0.45
		c0.3,0,0.75,0,1.2,0c0,0-2.25,0.15-2.4,0.45C16.17,38.53,16.78,38.98,17.83,39.28 M26.39,37.93c0,0-0.15,0-0.15,0.15
		c-0.15,0-0.3,0.15-0.45,0.3c0-0.15,0-0.45-0.3-0.45c-0.75-0.15-3.16,0-3.91,0c-0.15,0-0.3,0-0.45-0.15c0.6,0,1.2,0,1.65,0
		c1.35,0,2.86,0,3.16,0C26.09,37.78,26.24,37.78,26.39,37.93L26.39,37.93z"/>
	<path class="st12" d="M21.59,38.23c0.45-0.15,0.9-0.3,1.5-0.3c0.75,0,0.9-0.15,0.9,0C23.84,38.08,22.34,38.38,21.59,38.23"/>
	<path class="st4" d="M8.36,41.84c0,0,1.35,1.95,2.86,2.71c1.35,0.9,1.95,1.05,1.95,1.05s-1.95-0.75-3.31-1.95s-1.65-1.8-1.65-1.8
		H8.36z"/>
	<path class="st4" d="M14.07,45.6c0,0,2.25,1.8,3.76,1.95c1.35,0.15,3.01,0.15,3.31,0c0.3-0.15,0.3-0.15,0.3-0.15
		s0.45,0.15,1.35,0.15s2.4,0,3.76-1.05c0.75-0.6,1.5-1.2,2.1-1.8c0.3-0.15,0.45-0.45,0.75-0.6c0,0-1.05,0.9-1.8,1.8
		c-0.75,0.75-1.8,1.8-3.76,1.95s-2.1,0-2.1,0s-0.15,0-0.15-0.15c0,0-0.75,0.3-2.25,0.3C17.68,47.85,16.02,47.4,14.07,45.6"/>
	<path class="st4" d="M12.12,36.73c0,0-0.15,0.9,0.15,1.35c0.3,0.45,0.45,0.45,0.45,0.45S11.52,37.93,12.12,36.73 M29.25,36.88
		c0,0,0.15,0.3-0.15,0.9c-0.3,0.75-0.3,0.75-0.3,0.75S29.7,37.93,29.25,36.88L29.25,36.88z M15.57,31.17c0,0-0.9,0.75-1.05,1.65
		c-0.15,0.3-0.15,0.75-0.3,1.2c0,0,0-1.05,0.3-1.8c0.3-0.45,0.6-0.9,0.9-1.2L15.57,31.17z M16.93,40.34c0.6,0.45,1.35,0.75,2.1,0.75
		c1.2,0.15,1.8,0,1.8,0S18.13,41.84,16.93,40.34L16.93,40.34z"/>
	<path class="st29" d="M30,11.33c0-0.75-2.71-0.9-2.71-0.9C26.85,11.93,30,12.08,30,11.33z"/>
	<path class="st29" d="M24.59,35.98c0.3,0.15,0.75,0.3,1.05,0.45c0.45,0.3,0.9-0.3,0.9-0.45C26.54,35.83,24.74,35.38,24.59,35.98z"
		/>
	<path class="st29" d="M24.89,31.32c0-0.3-0.15-1.05-0.6-1.2c0,0,0.15,0.75,0,1.05C24.14,31.47,24.74,31.62,24.89,31.32z"/>
	<path class="st29" d="M20.38,30.87c0.9,0,2.1-0.45,1.95-1.2c-0.3-0.75-1.8-1.65-2.25-0.6C20.08,29.06,19.63,30.87,20.38,30.87z"/>
	<path class="st5" d="M8.36,41.84L8.36,41.84c0,0,0-0.15-0.6-1.35c-0.3-0.75-0.9-1.95-1.35-3.31c-0.3-0.9-0.6-1.8-0.75-2.86
		c-0.3-1.8-0.6-5.71-0.6-6.91v-0.15v-0.15H4.9c0,0.6,0.15,5.11,0.6,7.21c0.15,0.9,0.45,1.95,0.75,2.86
		c0.45,1.35,1.05,2.55,1.35,3.31c0.45,1.05,0.6,1.35,0.6,1.35s0.15,0,0.15,0.15c0.15,0.15,0.15,0.15,0.15,0.3
		C8.51,42.14,8.51,41.99,8.36,41.84z"/>
	<path class="st5" d="M35.71,26.06c0-0.15,0-0.3,0-0.3s0,0,0-0.15h-0.15v0.15v0.15c0,1.05,0.15,3.46,0.3,4.06
		c0.15,0.6-0.15,2.1-0.6,4.06c0,0.15-0.15,0.45-0.15,0.75c-0.45,2.1-1.35,5.71-1.35,5.71l0,0c0,0.15,0,0.15,0,0.3l0.15-0.3
		c0,0,0.9-3.61,1.35-5.71c0-0.3,0.15-0.45,0.15-0.75c0.45-1.95,0.75-3.46,0.6-4.06C35.71,29.51,35.71,27.11,35.71,26.06z"/>
</g>
</svg>
