<?xml version="1.0" encoding="utf-8"?>
<!-- Generator: Adobe Illustrator 25.4.1, SVG Export Plug-In . SVG Version: 6.00 Build 0)  -->
<svg version="1.1" id="Layer_1" xmlns="http://www.w3.org/2000/svg" xmlns:xlink="http://www.w3.org/1999/xlink" x="0px" y="0px"
	 width="29.2px" height="31.9px" viewBox="0 0 29.2 31.9" style="enable-background:new 0 0 29.2 31.9;" xml:space="preserve">
<style type="text/css">
	.st0{fill-rule:evenodd;clip-rule:evenodd;fill:#EBC7A0;}
	.st1{fill-rule:evenodd;clip-rule:evenodd;fill:#F9DEC4;}
	.st2{fill-rule:evenodd;clip-rule:evenodd;fill:#D8A373;}
	.st3{fill-rule:evenodd;clip-rule:evenodd;fill:#BA8067;}
	.st4{fill-rule:evenodd;clip-rule:evenodd;fill:#231F20;}
	.st5{fill:#231F20;}
	.st6{fill-rule:evenodd;clip-rule:evenodd;fill:#E6B57C;}
	.st7{fill:#F9DEC2;}
	.st8{fill:#D8A373;}
	.st9{fill:#BA8067;}
	.st10{fill-rule:evenodd;clip-rule:evenodd;fill:#965A48;}
	.st11{fill:#FFFFFF;}
	.st12{fill-rule:evenodd;clip-rule:evenodd;fill:#FFFFFF;}
	.st13{fill-rule:evenodd;clip-rule:evenodd;fill:#6D6E71;}
	.st14{fill-rule:evenodd;clip-rule:evenodd;fill:#808285;}
	.st15{fill-rule:evenodd;clip-rule:evenodd;fill:#4E4E4F;}
	.st16{fill-rule:evenodd;clip-rule:evenodd;fill:#D2D3D4;}
	.st17{fill-rule:evenodd;clip-rule:evenodd;fill:#939598;}
	.st18{fill-rule:evenodd;clip-rule:evenodd;fill:#BCBEC0;}
	.st19{fill-rule:evenodd;clip-rule:evenodd;fill:#B65453;}
	.st20{fill-rule:evenodd;clip-rule:evenodd;fill:#7A3118;}
	.st21{fill-rule:evenodd;clip-rule:evenodd;fill:#A8A9AC;}
	.st22{fill-rule:evenodd;clip-rule:evenodd;fill:#E6E7E8;}
	.st23{fill-rule:evenodd;clip-rule:evenodd;fill:#CA6E6B;}
	.st24{fill-rule:evenodd;clip-rule:evenodd;fill:#A74142;}
	.st25{fill-rule:evenodd;clip-rule:evenodd;fill:#8B3533;}
	.st26{fill-rule:evenodd;clip-rule:evenodd;fill:#D87371;}
	.st27{fill-rule:evenodd;clip-rule:evenodd;fill:#F09E9F;}
	.st28{fill-rule:evenodd;clip-rule:evenodd;fill:#9A4F4E;}
	.st29{fill:#FFECDB;}
</style>
<g>
	<path class="st0" d="M4.2,17.4c0,0-0.2-0.1-0.3-0.2C3.7,17.2,3.3,17,3,17.3S2.5,17.9,2.5,19c-0.1,1,0,1.5,0.1,1.7s0.6,1.1,0.7,1.8
		c0.1,0.6,0.2,1,0.2,1S3.2,24.5,4,24.8c0.7,0.3,1.3-0.1,1.5-0.3c0.2-0.2,1.4-2.2,1.4-2.2l-2.5-5.1L4.2,17.4z"/>
	<path class="st1" d="M3.9,17.2C3.9,17.2,3.9,17.2,3.9,17.2c-0.1-0.1-0.6-0.2-0.9,0c-0.3,0.3-0.5,0.7-0.5,1.7c-0.1,1,0,1.5,0.1,1.7
		s0.6,1.1,0.7,1.8c0.1,0.6,0.2,1,0.2,1S3.2,24.5,4,24.8c0.6,0.3,1.1,0,1.4-0.2c-0.5-0.1-1.1-0.3-1.3-0.6c-0.5-0.6,0-1.7,0-1.7
		c-0.1,0.1-0.1,0.2-0.3,0.3c0,0-0.4-1-0.6-1.5c-0.2-0.5-0.3-1.7-0.3-2.1c0.1-0.4,1-1,1.1-1.3C4,17.5,3.9,17.5,3.9,17.2"/>
	<path class="st2" d="M4.2,17.4c0,0-0.2-0.1-0.3-0.2c-0.1-0.1-0.2-0.1-0.3-0.1c0.1,0.2,0.2,0.3,0.1,0.4c-0.1,0.1-0.3,0.2-0.4,0.2
		c0,0-0.7,0.6-0.3,2.2s0.9,2.7,0.9,2.7s-0.5-1.2-0.6-2.3s0.1-1.5,0.1-1.3c0,0.2,0.2,1.7,0.2,1.7s0.4-0.9,0.7-0.6
		c0.2,0.2,0.3,0.5,0.3,0.8c0,0.1-0.2,0.9-0.2,0.9s0.4,2,0.7,2.3c0.2,0.2,0.7,0.1,1.1-0.1c0.1-0.2,0.2-0.3,0.3-0.5
		c0.1-0.6,0.4-0.7,0.4-1.6l-2.2-4.6L4.2,17.4z"/>
	<path class="st3" d="M4.2,17.4c0,0-0.2-0.1-0.3-0.2c-0.1,0-0.1-0.1-0.2-0.1c0.2,0.3,0.6,0.8,0.6,1c0,0.3-0.1,0.3-0.1,0.3l-0.5-0.4
		l-0.1,1.3l0,0.3c0,0,0.4-0.4,0.9-0.3S5,19.5,5,19.5l-0.5,0.1c0,0-0.7,0.6-0.7,1.4c0,0.8,0.4,0.9,0.7,0.9c0.3,0,0.7-0.3,0.7-0.3
		s0.7-0.5,0.9-0.9l-1.7-3.6L4.2,17.4z"/>
	<path class="st4" d="M4.6,19.7c0,0-0.8,0.6-0.8,1.4c0,0.2,0,0.4,0.1,0.5c0,0.1,0.1,0.1,0.2,0.2c0.1,0,0.2,0.1,0.2,0.1
		c0.2,0,0.4-0.1,0.6-0.2L5,21.8C4.7,21.9,4.5,22,4.3,22c-0.1,0-0.2,0-0.3-0.1c-0.1-0.1-0.2-0.1-0.2-0.2c-0.1-0.2-0.1-0.4-0.1-0.6
		c0-0.9,0.9-1.5,0.9-1.5L4.6,19.7z M3.4,23.3c0,0.1,0,0.2,0,0.2s0,0.1,0,0.2c0-0.1,0.3-0.8,0.5-1l0.1-0.3c0,0-0.3,0.3-0.3,0.3
		c-0.1-0.1-0.2-0.4-0.3-0.8c-0.2-0.5-0.3-1-0.4-1.5c-0.1-0.5-0.1-0.9-0.1-1.4c0-1.1,0.5-1.3,0.5-1.3l-0.1,0c0,0-0.5,0-0.5,1.2
		c0,0.5,0,1,0.1,1.4c0.1,0.5,0.3,1,0.4,1.5c0.2,0.5,0.3,0.8,0.4,0.9C3.6,22.9,3.5,23.1,3.4,23.3z M4.6,19.5c0,0-0.5-0.9-0.9-1.4
		c0,0.3-0.1,0.9-0.1,1.5c0,0.6-0.1,0.9-0.1,0.9c0,0.5-0.1-0.6-0.1-1c0-0.3,0-1.5,0.2-1.7c0.5,0.4,0.8,1,1.1,1.5L4.6,19.5z"/>
	<path class="st5" d="M3.9,17.2c0.1,0.1,0.2,0.1,0.3,0.1l0.2-0.2l0.1-0.1l0,0.1l2.5,5.1l0,0l0,0c0,0-1.1,2-1.4,2.2
		c-0.2,0.1-0.4,0.3-0.6,0.3c-0.3,0.1-0.7,0.1-1,0c-0.7-0.3-0.6-1.3-0.6-1.4c0-0.1-0.1-0.4-0.2-1C3.1,22,2.8,21.4,2.6,21
		c-0.1-0.1-0.1-0.2-0.1-0.3c-0.1-0.2-0.1-0.4-0.1-0.6c0-0.4,0-0.8,0-1.2c0-0.5,0.1-0.9,0.2-1.2c0.1-0.2,0.2-0.4,0.4-0.6
		c0.1-0.1,0.3-0.1,0.4-0.2C3.5,17.1,3.7,17.1,3.9,17.2 M4.1,17.4c-0.1-0.1-0.2-0.1-0.3-0.2c-0.1-0.1-0.3-0.1-0.4-0.1
		c-0.1,0-0.3,0.1-0.4,0.1c-0.2,0.1-0.3,0.3-0.3,0.5c-0.1,0.3-0.1,0.6-0.2,1.1c0,0.4,0,0.8,0,1.1c0,0.2,0,0.3,0.1,0.5
		c0,0.1,0.1,0.2,0.1,0.3c0.2,0.4,0.5,1,0.6,1.5c0.1,0.6,0.2,1,0.2,1v0c0,0-0.2,1,0.5,1.3c0.3,0.1,0.6,0.1,0.9,0
		c0.2-0.1,0.4-0.2,0.6-0.3c0.2-0.2,1.2-1.9,1.3-2.2l-2.4-5L4.1,17.4L4.1,17.4L4.1,17.4z"/>
	<path class="st1" d="M24.8,16.1c0,0,0.3,0.1,0.4,0.1c0.2,0,0.7-0.2,1,0.2c0.3,0.4,0.6,1.4,0.5,2c-0.1,0.6-0.5,1.6-0.4,2.5
		c0.1,0.9,0.1,1.5,0.2,1.9c0.1,0.4-0.1,0.9-0.8,1.1c-0.7,0.1-0.9-0.3-1.5,0S22,21,22,21S24.1,16.1,24.8,16.1"/>
	<path class="st0" d="M26.5,23.2c-0.1,0.2-0.3,0.5-0.8,0.5c-0.7,0.1-0.9-0.3-1.5,0S22,21,22,21s0.4-0.9,0.8-1.8c0.9-0.5,2-0.9,2-0.9
		s-0.2-1.6,1.3-1.5c0,0,0.6,1,0.5,1.7s-0.3,1.5-0.3,1.5s-0.4-1.6-0.7-1.8c-0.2-0.1-0.4-0.1-0.7-0.1c0,0,0.6,0.8,0.8,1.5
		c0.2,0.7,0,1.5,0,1.5s-0.7,0-0.8,0.9s-0.1,1.5,0.1,1.6C25.2,23.5,26,23.4,26.5,23.2"/>
	<path class="st2" d="M25.3,17.2c0,0,0.6,0.6,0.8,1.2c0.2,0.6,0.2,0.6,0.2,0.6s0.2-1.1,0-1.5c-0.1-0.3-0.3-0.5-0.4-0.8L25.3,17.2z
		 M25.1,18.7c0,0-0.4-0.4-0.6-0.2c-0.3,0.2-0.2,1.4-0.1,1.5s0.5,0,0.5,0s0.2,0.2,0.3,0.4c0,0.1,0,0.2,0,0.3c0,0,0.3,0.1,0.4,0.1
		l0.1,0.1C25.7,20.9,25.9,19.7,25.1,18.7L25.1,18.7z"/>
	<path class="st4" d="M25.5,17.4c0,0,0.6,1.1,0.7,1.6c0.1,0.6,0.2,0.8,0.2,0.8L26.3,20c0,0-0.1-0.4-0.2-1
		C25.9,18.5,25.4,17.3,25.5,17.4L25.5,17.4z M24.5,20.8c0,0,0.6-0.2,0.8-0.1l0.3,0.1c0-0.3,0-1.4-0.6-2.1l0.1,0.1
		c0.7,1,0.6,2.1,0.6,2.1l0,0.1l-0.1,0c0,0-0.1-0.1-0.4-0.2c-0.2-0.1-0.7,0.1-0.7,0.1L24.5,20.8z M24.7,18.9c0,0,0.3-1.4,0.7-1.8
		c0.3-0.3,0.4-0.4,0.8-0.4h0c0,0-0.1,0.1-0.2,0.2c0.2,0.3,0.4,0.6,0.4,0.9c0.1,0.6-0.1,1.2-0.1,1.2l0,0.1c0,0,0.1-0.8,0-1.3
		c-0.1-0.3-0.2-0.6-0.4-0.9c-0.1,0.1-0.3,0.2-0.4,0.3c-0.4,0.4-0.7,1.7-0.7,1.7L24.7,18.9z"/>
	<path class="st5" d="M25.3,16.2c-0.2,0-0.4-0.1-0.5-0.1c-0.6,0.1-2.5,4.4-2.7,4.9c0.2,0.3,1.6,2.9,2.1,2.7c0.3-0.1,0.5-0.1,0.8,0
		c0.2,0.1,0.5,0.1,0.7,0c0,0,0.1,0,0.1,0c0.2,0,0.4-0.2,0.5-0.4c0.1-0.2,0.1-0.3,0.1-0.5c0,0,0,0,0-0.1c-0.1-0.3-0.1-0.8-0.2-1.4
		c0-0.2,0-0.3,0-0.5c0-0.7,0.1-1.4,0.3-1.9c0.1-0.2,0.1-0.4,0.1-0.6c0-0.3,0-0.6-0.1-1c-0.1-0.4-0.3-0.8-0.4-1
		C25.9,16,25.5,16.2,25.3,16.2L25.3,16.2L25.3,16.2z M24.8,16c0,0,0.2,0.1,0.4,0.1l0,0l0,0c0.2-0.1,0.7-0.2,1,0.2
		c0.2,0.2,0.3,0.6,0.4,1c0.1,0.4,0.1,0.7,0.1,1c0,0.2-0.1,0.4-0.1,0.6c-0.1,0.6-0.3,1.3-0.3,1.9c0,0.2,0,0.3,0,0.5
		c0,0.6,0.1,1.1,0.2,1.4c0,0,0,0,0,0.1c0,0.2,0,0.4-0.1,0.6c-0.1,0.2-0.4,0.4-0.6,0.4c0,0-0.1,0-0.1,0c-0.3,0-0.5,0-0.8-0.1
		c-0.2-0.1-0.4-0.1-0.7,0C23.6,24.1,22,21,22,21l0,0l0,0C22,21,24.1,16,24.8,16L24.8,16z"/>
	<path class="st0" d="M25,20c-0.1-0.5-0.2-2.5-0.2-2.9c0-0.4-0.1-1.1-0.1-1.7S24.4,9.9,24,8.9s-1.3-3.2-2.1-3.8s-4.1-1.4-4.1-1.4
		s-4.6-1.1-6.6-0.2s-5,2.2-5.6,3s-1.1,2.1-1.5,4.2S4,16.3,4.4,18c0,0,0.1,3.4,0.4,4.8c0.3,1.4,1,3.1,1.4,4l0.4,0.7l0.1,0.2
		c0,0,0.7,0.9,1.1,1.2c0.7,0.5,1.4,1,2.2,1.3c0.2,0,0.4,0,0.6,0l0.6,0.5c0,0,0,0.1,1.1,0.6s2.9,0.2,2.9,0.2l0.3-0.1l0.2,0.1l1.1,0
		c1.1,0,2.1-0.8,2.1-0.8l0.3-0.2l0.7-0.7l0,0c0.7-0.7,2.4-1.6,3.3-2.6c0.6-0.6,0.4-0.4,0.4-0.4l0.1,0c0,0,0-0.1,0-0.1
		s0.6-2.4,0.9-3.8C24.8,21.7,25.1,20.5,25,20z"/>
	<path class="st6" d="M7.6,5.3c-1,0.5-1.7,1-2,1.4c-0.5,0.8-1.1,2.1-1.5,4.2c-0.2,1.4-0.3,3.4-0.1,5c0.7,0.7,1.2,0.2,3-0.1
		C9,15.5,8.6,15.6,9.6,15s1.3-0.8,1.4-1c0-0.2-0.6-1.6-0.7-2.8c-0.1-1.2,2.3-1.9,2.3-1.9s-1.3,0.2-2.7,0S8.2,5.5,8.1,5.4
		C8,5.3,7.8,5.3,7.6,5.3"/>
	<path class="st1" d="M7,5.6C6.3,6,5.8,6.3,5.6,6.6c-0.5,0.8-1.1,2.1-1.5,4.1c0.6,0,1.7-0.5,2.4-1.2c0.9-0.9,1.1-3.7,1.1-3.7
		C7.4,5.8,7.2,5.7,7,5.6"/>
	<path class="st7" d="M18.2,24.8c0-0.1,0.9-0.3,1.1-1c0.2-0.7-0.5-1.8-0.6-1.8c-0.1,0-0.8,0.8-1.2,1.3c-0.4,0.6-1.7,0.8-1.7,0.8
		C15.1,25.1,18.2,24.9,18.2,24.8z"/>
	<path class="st7" d="M17.9,26c-0.5,0.3-1.7,0.4-1.7,0.4c2.3,0.8,2.4-0.8,2.3-0.9S18.4,25.7,17.9,26z"/>
	<path class="st7" d="M18,21.2c0.1-0.2-0.1-1.6-1.2-1.7c0,0,0.1,0.8,0.1,1.1C16.8,21,17.9,21.4,18,21.2z"/>
	<path class="st7" d="M9.9,20.4c0.3-0.5,0.2-0.9-1.1-1c-0.8-0.1-1.5-0.4-2-0.9c-0.3,0.4,0.1,1.8,0.4,2.2C7.4,20.9,9.6,20.9,9.9,20.4
		z"/>
	<path class="st7" d="M6.6,27.5l0.1,0.2c0,0,0.1,0.1,0.2,0.2c0.2-0.5,0.6-1.6,0.2-2.3c-0.4-0.7-1.2-0.8-1.6-0.8
		c0.3,0.8,0.6,1.5,0.8,1.9L6.6,27.5z"/>
	<path class="st7" d="M25,20c-0.1-0.5-0.2-2.5-0.2-2.9c0-0.4-0.1-1.1-0.1-1.7S24.4,9.9,24,8.9c-0.3-0.7-0.8-2-1.4-2.9
		c-0.1,0-0.2,0-0.4,0c0,0-12,0.8-11.9,1.3c0,0.3,0.4,0.8,1.5,1c1,0.1,2.6-0.2,4-0.1c3,0.1,3.3,0.4,3.1,0.5c-0.2,0.1-7.9,0.9-8,2
		s5-0.3,7.8,0s2.3,1.5,2.5,1.8c0.2,0.4,0.7,0.4,0.7,0.4s1.1,1.2,1.2,2.3c0.1,1-1.3,1-1.3,1s0.8,0.6,0.3,1.3
		c-0.6,0.8-3.8,0.3-3.9,0.3c-0.1,0,1.1,1.4,2.6,2s1.8,2.1,1.3,4.7c-0.5,2.6-0.7,3.9-0.7,3.9l-0.8,0.8c0,0-1.5-2.1-2.4-1.6
		c-0.8,0.6,0.8,2.9,0.8,2.9v0l0.7-0.6l0,0c0.7-0.7,2.4-1.6,3.3-2.6c0.6-0.6,0.4-0.4,0.4-0.4l0.1,0c0,0,0-0.1,0-0.1s0.6-2.4,0.9-3.8
		C24.8,21.7,25.1,20.5,25,20z"/>
	<path class="st7" d="M14.5,15.3c0,0-0.9,4.8-0.5,5.3s2.3,0.5,2.3-0.4c0-1-0.8-3.9-0.8-4.5C15.4,15.1,14.6,15.1,14.5,15.3z"/>
	<path class="st8" d="M20.3,24.5c0,0,0.2-0.9-0.6-1.4c0,0,0.2,0.9,0.2,1.2c0,0.3,0,0.4,0,0.4L20.3,24.5z"/>
	<path class="st8" d="M19.8,21.1c-0.5-0.6-2.2-1.3-2.2-1.3c0.8,0.5,0.5,1.4,0.5,1.4s0.3-0.2,0.9,0s1.3,0.7,1.3,0.7
		S20.3,21.7,19.8,21.1z"/>
	<path class="st8" d="M16.8,15.8c0.1,1,0.4,1.3,0.4,1.3s0.1-0.6,0.6-0.6c0.5,0,0.7,0.4,1.8,0.6c0.7,0.1,1.3,0.1,2,0
		c0,0-0.9-0.1-1.2-0.2c-0.3-0.1,0.3-0.2,0.7-0.4c0.2-0.2,0.4-0.4,0.5-0.7l-1-0.5l0.1-0.2c0,0,0.4-0.2,1,0.1c0.6,0.2,0.7,0.2,0.7,0.2
		s-0.5-0.7-1.2-0.9c-0.7-0.3-1.2-0.7-0.9-1.2c0.3-0.5,1.7-0.4,1.7-0.4L21,12.6c0,0-3.2,0.2-4.2,1c-1,0.8-1,0.8-1,0.8l1.4-0.1
		C17.2,14.4,16.6,14.8,16.8,15.8z"/>
	<path class="st8" d="M17.8,31c-1.1,0.1-1.7-0.7-2-1.2c-0.3-0.5-0.6-0.2-0.8,0c-0.3,0.2-0.3-2.4-0.3-2.4l-1,0.1c0,0,0.1,0,1.1-0.2
		c1-0.1,1.5-0.3,1.5-0.4c0,0-0.1,0-0.6-0.1c-0.6-0.1-1-1.2-1-1.2l-0.7-1.2c0,0-0.3-0.8-0.2-1c0.1-0.3,1.1,0,1.1,0l0.2,0.2l0.3,0
		c0,0,0.2,0,0.4-0.3c0.2-0.3-0.1-1.3-0.1-1.3s-0.3,0.1-0.5,0.2c-0.1,0-0.3,0.1-0.4,0.1l-0.9-0.2c0.4,0.1,0.8,0.1,1.2,0
		c0.7-0.1,0.7-0.8,0.7-0.8c-0.5,0.2-1.8,0-2.3-1.2C13,19,14,18.5,14.1,16.3s-2.3-2.7-2.3-2.7l0,0.7c0,0-2.8-1-4.1-0.7
		c-1.3,0.3-2,1.1-2,1.1l-0.2,0.2L5,15.5c0,0,0-0.2,0.3-1.3c0.3-1,1.5-1.6,3.1-2.5c1.6-0.9,1-2.4-0.5-1.9s-3.6,1.7-3.5,0.2
		c0-0.2,0.1-0.5,0.1-0.7c-0.2,0.5-0.3,1.1-0.4,1.6C3.8,12.9,4,16.3,4.4,18c0,0,0.1,3.4,0.4,4.8c0.1,0.6,0.3,1.1,0.5,1.7
		c0.1,0,0.3-0.1,0.4-0.1c1.2-0.3,2.1,1.9,2.5,2c0.4,0.1,0.1-1.3,0.1-1.6s2.2,3.1,1.4,3.7c-0.8,0.6-3-0.9-3-0.9l-0.1,0l0.1,0.2
		c0,0,0.2,0.2,0.4,0.5c0,0,0.1,0.1,0.1,0.1c0,0,0,0.1,0.1,0.1c0.2,0.1,0.3,0.3,0.4,0.4l0,0c0,0,0,0,0,0c0,0,0,0,0,0l0,0
		c0.7,0.5,1.4,1,2.2,1.3c0.2,0,0.4,0,0.6,0l0.6,0.5c0,0,0,0.1,1.1,0.6s2.9,0.2,2.9,0.2l0.3-0.1l0.2,0.1l1.1,0c1.1,0,2.1-0.8,2.1-0.8
		l0.3-0.2l0.2-0.2l0-0.1C19.2,30.4,18.9,31,17.8,31z M10.1,21.6c-0.2,1.2-1,1.4-1.9,1.4S5,20.2,5.6,16.9c0,0,0.9,1.5,3.4,1.7
		s3-0.1,2.8,0C11.7,18.8,10.3,20.3,10.1,21.6z M12.5,21c-0.3,0.1-0.8,0.3-0.8-0.2s0.6-1.3,1.1-1.3c0,0.3,0.1,0.5,0.1,0.8
		C13,20.6,12.8,20.9,12.5,21z"/>
	<path class="st8" d="M6.3,6.1L6.3,6.1C5.6,6.2,4.8,7.8,4.5,9.2c0.3-1.2,0.7-2,1.1-2.6C5.7,6.5,6,6.3,6.3,6.1z"/>
	<path class="st8" d="M17.2,22c-0.1,0.1-0.2,0.1-0.3,0.2c0.3-0.1,0.5-0.1,0.8-0.2c0.3-0.1,0.3-0.2,0.3-0.2s-0.6-0.5-1-0.5
		c-0.4,0-0.7,0.2-0.9,0.5c0,0,0.5,0.1,0.8,0.1c0.4,0,0.6-0.1,0.6-0.1C17.3,21.8,17.2,21.9,17.2,22z"/>
	<path class="st8" d="M12.9,4.2c-0.3-0.2-1.3,0-2.6-0.2c-1.5,0.7-3.1,1.4-4,2C7,6,12.8,5.3,12.8,5.3S13.2,4.4,12.9,4.2z"/>
	<path class="st9" d="M9.5,30.1c0.1,0.1,0.2,0.1,0.3,0.2c0.2,0,0.5,0,0.7,0l0.6,0.5c0,0,0,0.1,1.1,0.6s2.9,0.2,2.9,0.2l0.3-0.1
		l0.2,0.1l1.1,0c0,0,0.1,0,0.1,0h0c0,0,0.1,0,0.1,0h0c0,0,0.1,0,0.1,0l0,0c0,0,0.1,0,0.1,0l0,0c0.1,0,0.2,0,0.3-0.1l0,0
		c0.1,0,0.2-0.1,0.2-0.1c-0.7,0.1-2.3-0.5-2.3-0.5s0,0.2-1.9-0.2s-2.4-3.5-2.7-3.8c-0.3-0.3-0.1,1.7-0.5,2.3
		c-0.4,0.6-1.9,0.1-1.9,0.1C8.7,29.7,9.5,30.1,9.5,30.1z"/>
	<path class="st9" d="M18.2,15.5c-0.3,0-0.8,0.6-0.8,0.6c0,0-0.2,0.4-0.2,0.4c0.1-0.1,0.3-0.2,0.4-0.2c0.3-0.1,0.9,0.2,1.7,0.3
		c0.8,0.1,1.2,0,1.2,0s-0.3,0-0.9-0.1c-0.3,0-0.7-0.1-1-0.2c0,0,0.3,0,0.9,0c0.7,0,0.7,0,1.2-0.2c0.5-0.2,1.3,0.2,1.3,0.2
		s0-0.2-0.3-0.6c-0.1-0.2-0.3-0.3-0.5-0.3l-0.3,0.1c-0.1-0.2-0.2-0.4-0.4-0.6c-0.1-0.1-0.1-0.2-0.1-0.4c0,0-0.3-0.1-0.7-0.4
		S19.1,13,19.1,13s-1.4,0.6-1.2,0.9c0.2,0.3-0.3,0.6-0.6,1.2c-0.2,0.3-0.3,0.7-0.3,1.1c0.1-0.2,0.2-0.4,0.4-0.6
		C17.7,15.2,18.2,15.5,18.2,15.5z"/>
	<path class="st9" d="M11.9,21.4c-0.5-0.1-0.9-1.6,0.9-2.1c0,0-0.9-0.5-1.6,0.9c-0.7,1.3-0.5,1.8-0.5,1.8s0.4-0.4,0.7-0.3
		c0.3,0.2,1,1.1,1.5,1.3s1.6-0.6,1.6-0.6s0.3,1.3,0.5,1.4c0.1,0,0.4-0.1,0.4-0.1s-0.3,0-0.4-0.2s-0.2-1.2-0.2-1.2S14.1,22,14,21.9
		c-0.2-0.1-0.4-1-0.6-1.2S12.4,21.5,11.9,21.4z"/>
	<path class="st9" d="M12.3,24.7c0,0-1.4,0.6-1.8-0.1c-0.4-0.7-0.3-1.7-0.8-1.1c-0.5,0.6-0.9,1.1-0.3,1.9s0.6,1,0.7,0.9
		s0.3-0.3,0.4-0.2c0.1,0.1,1.3,1.5,2.7,1.5c0.9,0,1.8-0.1,2.7-0.4c0,0-1.6,0.5-2.6,0.2c-1-0.3-1-1.2-0.8-1.2s1.5,0.2,2.1,0.1
		s0.8-0.4,0.8-0.4l2.8-0.7c0,0,1.4,0.4,1.5,0.1c0.1-0.2-0.9-0.7-1.3-0.5c-0.3,0.1-1.5,0.1-1.5,0.1l-4.2-0.3L12.3,24.7z"/>
	<path class="st9" d="M7.2,17c0.6,0.4,1.2,0.6,1.9,0.6c1.1,0,2.8-0.8,2.8-0.8s0,0.5-0.7,1c-0.7,0.6-2.1,0.5-2.1,0.5s0.5,0.1,1.7-0.1
		c1.2-0.2,2.2-2,2.2-2s0,0.1,0,0.8c0,0.5-0.1,0.9-0.3,1.4c0,0,0.6-0.6,0.7-2.1s-1.8-2.7-1.8-2.7c-0.1,0.2-0.3,0.3-0.6,0.2
		c-0.4-0.1-1.1,0-1.3-0.1l-0.1,0c0.3,0.2,0.6,0.5,0.7,0.7c0.1,0.4,0,0.5,0,0.5c-0.2,0-0.5,0-0.7,0c0,0,0.8,0,0.8,0
		c0,0-0.1,0.2-0.4,0.2S9.8,15,9.8,15c-0.1,0-0.3,0-0.4,0.1c-0.5,0.2-0.6,0.2-0.6,0.2S8.2,16,8.2,16s-0.8-0.4-0.5-1.3
		c0.2-0.6,0.8-0.8,1.3-1l-0.2,0c0,0-1.7,0-2.1,0.2c-0.4,0.2-1,0.9-0.8,1.7S7.2,17,7.2,17z M10.9,16.7c0,0-0.4,0.2-0.8,0.2
		c-0.3,0-0.2-0.4-0.2-0.4l1.6-0.1c0,0-0.2,0.5-1,0.8c-0.8,0.3-1,0.1-1,0.1C10,17.2,10.9,16.7,10.9,16.7z"/>
	<path class="st9" d="M5,19c-0.2,0-0.3,0.2-0.5,0.4c0.1,1.1,0.2,2.6,0.3,3.4c0.1,0.3,0.1,0.6,0.2,1c0.7-0.7,1.8-0.8,1.4-1.4
		C5.9,21.6,5,19,5,19z"/>
	<path class="st10" d="M19.6,13.2c0,0-0.5,0.2-0.6,0.7s0.2,0.6,0.2,0.6c0.1,0.3,0.4,0.4,0.6,0.5c0.4,0.1,0.4,0.2,0.5,0.3
		s0.8,0,0.8,0s0.4,0.3,0.5,0.5c0.1,0.1,0.1,0.2,0.1,0.3c0,0-0.3-0.2-0.6-0.1c-0.2,0.1-0.5,0.1-0.7,0.2c-0.1,0-0.3,0-0.5,0
		c0,0,0.6-0.1,0.6-0.3s-0.3-0.3-0.3-0.3s-0.8,0.1-0.8,0.1c0,0-1.7,0.3-1.7,0.3c-0.1,0.2-0.3,0.3-0.5,0.4c-0.3,0.2-0.3,0.2-0.3,0.2
		s0-0.6,0.2-0.7c0.1-0.1,0.2-0.2,0.3-0.2c0.1,0,0.2-0.1,0.3-0.1c0,0,0.2-0.4,0-0.4c-0.2,0-0.4,0.3-0.4,0.3c0.2-0.3,0.4-0.6,0.7-0.8
		c0.4-0.3,0.5-0.5,0.3-0.7C18.3,13.5,19.4,13.1,19.6,13.2 M14.1,21.9c0,0-0.7,0.4-1.3,0.3S12,21.8,12,21.8s0.4-0.7,0.9-0.5
		C13.5,21.4,14.1,21.9,14.1,21.9z M15.9,21.5c0,0,0.2,0.1,0.7,0.1s0.7-0.2,0.7-0.2c-0.1-0.1-0.3-0.1-0.4-0.1c-0.3-0.1-0.4-0.1-0.5,0
		c-0.1,0-0.1,0-0.2,0.1S16,21.5,15.9,21.5L15.9,21.5z M11.2,25c0,0-1.1-0.2-1.2,0.1c0,0.3,0.9,0.4,1.2,0.3S11.2,25,11.2,25z
		 M10.2,13.6c0,0,0.9,0.6,1,1.1c0.1,0.5,0.1,0.6,0.1,0.6s-0.6-0.2-0.7-0.2c-0.1,0-0.1,0-0.2,0c0,0,0.6,0.4,0.5,0.7
		c-0.2,0.3-1.6-0.1-1.6-0.1s-0.3,0-0.3,0c0.1-0.1,0.2-0.3,0.3-0.4C9.5,15,9.6,15,9.6,15s-1.1,0.1-1.7,0.6C7.3,16.1,7.2,17,7.2,17
		c0.4,0.3,0.9,0.5,1.3,0.6c0.7,0.1,1,0,1,0s-1.1,0-1.4-0.2c-0.3-0.3,0.1-0.5,0.6-0.6c0.5,0,2.3-0.3,2.8-0.2c0.6,0.1,0.7,0.2,0.7,0.2
		s0-0.5-0.3-0.8c-0.1-0.1-0.2-0.2-0.4-0.3c0.2,0.2,0.5,0.3,0.7,0.5c0.5,0.4,0.6,0.5,0.6,0.5s0.3-0.7,0-1.3c-0.2-0.7-1.2-1.6-1.2-1.6
		L10.2,13.6z"/>
	<path class="st11" d="M7.9,28.9c-0.8-0.9-1.8-2.7-2.1-3.6S4.9,20.9,5,18.5s1-4.2,1-4.2S5.4,15,5,14.9c-0.4-0.1-0.7-1.3-0.7-1.3
		c-0.1,0-0.2,0-0.3,0.1C4,15.3,4.1,17,4.4,18c0,0,0.1,3.4,0.4,4.8s1,3.2,1.4,4.1c0.4,0.8,0.4,0.9,0.4,0.9s0,0,0,0.1
		c0.1,0,0.1,0.1,0.1,0.2C6.9,28.1,7,28.2,7,28.3l0,0c0,0,0.4,0.4,0.6,0.6c0.2,0.2,1.2,0.9,1.2,0.9C8.8,29.8,8.7,29.7,7.9,28.9z"/>
	<path class="st11" d="M24.3,10.5L24.3,10.5l0-0.1v0c0,0,0-0.1,0-0.1l0,0l0-0.1v0c0,0,0-0.1,0-0.1v0c0,0,0-0.1,0-0.1v0l0-0.1v0
		c0,0,0-0.1,0-0.1v0l0-0.1v0c0,0,0-0.1,0-0.1v0c0,0,0,0,0-0.1l0,0c0,0,0,0,0-0.1v0l0-0.1v0l0-0.1l0,0c0,0,0,0,0-0.1v0l0-0.1l0,0l0,0
		v0c0,0,0,0,0,0l0,0c0,0,0,0,0,0v0v0v0v0v0l0,0v0v0v0v0v0l0,0v0v0v0v0v0l0,0v0v0v0v0v0l0,0v0v0v0v0v0l0,0v0v0v0v0v0l0,0v0v0v0v0l0,0
		v0v0l0,0v0l0,0v0v0v0v0v0l0,0v0v0v0v0v0l0,0v0v0v0v0l0,0v0l0,0v0l0,0v0v0l0,0l0,0v0l0,0v0c-0.3-0.7-0.7-1.7-1.2-2.4
		c-0.1,0-0.2,0-0.4,0l-0.4,0l0,0l2.2,4.5L24.3,10.5z"/>
	<path class="st11" d="M23.6,27C23.6,27,23.6,27,23.6,27c0,0,0.6-2.4,0.9-3.8c0.3-1.4,0.6-2.7,0.5-3.1c-0.1-0.5-0.2-2.5-0.2-2.9
		c0-0.4-0.1-1.1-0.1-1.7c0-0.2,0-0.9-0.1-1.8l0-0.1v0v0l0-0.1l0,0l0-0.1v0l0-0.1v0l0-0.1v0c0-0.1,0-0.2,0-0.2v0l0-0.2v0l0-0.3l0,0
		l0-0.1v0c0-0.1,0-0.2,0-0.3v0l0-0.3v0l0-0.1v0v0l0-0.1v0c0-0.1,0-0.2,0-0.2v0l0-0.1v0l0,0l0,0c0,0,0-0.1,0-0.1v0l-2.5-4.6
		c0,0,1.2,3.5,1.4,5.3c0.1,0.6,0.1,1,0.2,1.4c-0.1,0.3-0.3,0.5-0.5,0.7c0,0,1.3,2,1.4,4.4s-0.1,4.7-0.5,6.7
		c-0.4,1.6-1.2,2.9-1.5,3.4c0,0,0.1,0,0.1,0c0.1-0.2,0.3-0.4,0.6-0.5c0,0,0.1-0.1,0.1-0.1c0,0,0.1-0.1,0.1-0.1
		c0.1-0.1,0.1-0.1,0.2-0.2C23.5,27.1,23.5,27,23.6,27z"/>
	<path class="st12" d="M24.3,10.7L24.3,10.7l0-0.1"/>
	<path class="st4" d="M23.6,27.1C23.6,27,23.6,27,23.6,27.1l0-0.3l-0.1,0.1c-0.1,0.1-1.7,1.6-1.7,1.6S23.1,27.6,23.6,27.1"/>
	<path class="st13" d="M4.4,18c0,0-0.3-3,0.2-5.1c0.4-2.1,0.6-2.7,0.6-2.7l-0.3,0.3c0,0,0.2-1.2,0.5-1.8C5.7,8.1,5.8,8,5.8,8
		L5.4,8.4l0.3-0.8L5.3,8.1c0,0,0.2-0.7,0.6-1.1c0.2-0.2,0.3-0.4,0.5-0.6c0,0,0.9,0.1,2-0.3s1.7-0.8,2.7-0.8c1,0,1.5,0.1,1.5,0.1
		L12.1,5l1.3,0.4l-0.4-0.3l0.7,0.4l-0.1-0.4l0.4,0.3L14.1,5l0.3,0.4l0.2-0.3l0.1,0.5L15,5l0.2,0.2l0.3-0.3v0.3L16,4.6V5l1.2-0.3
		l0.2,0.1l0.2-0.2l0.3,0.3L18,4.7l0.3,0.4L19,4.9L18.9,5c0,0,0.9,0.2,1.5,0.4c0.3,0.1,0.5,0.2,0.8,0.3l-0.6-0.1c0,0,0.8,0.1,1.4,0.6
		c0.6,0.5,0.8,0.6,0.8,0.6l-0.3-0.1l0.5,0.4L22.7,7l0.4,0.5l-0.4-0.2l0.6,0.8L22.9,8l0.7,0.8l-0.5-0.3l0.7,0.9L23.2,9l0.5,0.8
		l-0.5-0.3l0.3,0.5l-0.4-0.2l0.6,0.8l-0.3-0.2l0.3,0.5l-0.4-0.2l0.8,1.1l-0.3-0.3l0.4,0.8L24,12l0.3,0.8L24,12.5l0.4,1l-0.3-0.3
		l0.2,0.5l-0.1-0.1l0.2,0.3l-0.2-0.2l0.2,0.4l-0.2-0.2l0.2,0.4l-0.2-0.2l0.3,0.7l-0.2-0.3l0.3,0.9l-0.2-0.3l0.2,0.6l-0.3-0.3l0.4,1
		l-0.1-0.1l0.1,0.7l0.1-0.1l-0.1-0.3l0.2,0.1l-0.1-0.6l0.1,0.1l-0.1-0.5l0.3,0.1l-0.2-0.6l0.4,0.3L25,15l0.2,0.1l-0.2-0.4l0.2,0.1
		L25,14.3l0.1-0.6l-0.3-0.9c0,0,0.1-1.5-0.1-2.2c-0.2-0.7-0.3-1.6-0.3-1.6l0.2,0.1l-0.3-0.6l0.3,0.1l-0.6-0.8L24.4,8
		c0,0-0.4-1.4-2.1-3.3c-1.7-2-2.6-2.6-2.6-2.6l-0.3,0.1V1.9l-0.2,0l-0.1-0.3l-0.2,0.2c-0.5-0.4-1-0.8-1.6-1c-1-0.4-1.2-0.4-1.2-0.4
		l-0.2,0.1l-0.1-0.2l-0.1,0.2l-0.1-0.2l-0.1,0.2l-0.1-0.3L15,0.2l-0.3-0.1c-0.9-0.1-1.9,0-2.8,0.3c-1.5,0.4-2.1,0.9-2.1,0.9L9.6,1.2
		l0.2,0.2L9.4,1.4l0.1,0.2L9.2,1.5l0.1,0.3C8.4,2.1,7.6,2.7,6.9,3.3c-1,1.1-1.3,1.6-1.3,1.6l-0.2,0l0.2,0.3l-0.3,0l0.2,0.2
		c0,0-0.2-0.2-0.8,0.8S3.8,7.6,3.8,7.6l0.3-0.2L3.8,7.9l0.1,0L3.8,8.1l0.1,0L3.5,8.7c0,0,0.1-0.2,0.1-0.1c0,0.1,0,1.1-0.1,1.7
		c0,0.6,0,2.9,0,3.2s0,0.4,0,0.4l0.2-0.3c0,0-0.2,0.5-0.2,1s0.1,1.1,0.1,1.1s0.1-0.2,0.1-0.2c-0.1,0,0,0.2,0,0.6
		c0,0.3,0.1,0.6,0.2,0.9l0.1,0c0,0.2,0,0.4,0.1,0.5C4.2,17.8,4.4,18.2,4.4,18"/>
	<path class="st14" d="M23,7.8l0.3,0.4L22.9,8l0.7,0.8l-0.5-0.3l0.7,0.9L23.2,9l0.5,0.8l-0.5-0.3l0.3,0.5l-0.4-0.2l0.6,0.8l-0.3-0.2
		l0.3,0.5l-0.4-0.2l0.8,1.1l-0.3-0.3l0.4,0.8L24,12l0.3,0.8L24,12.5l0.4,1l-0.3-0.3l0.2,0.5l-0.1-0.1l0.2,0.3l-0.2-0.2l0.2,0.4
		l-0.2-0.2l0.2,0.4l-0.2-0.2l0.3,0.7l-0.2-0.3l0.3,0.9l-0.2-0.3l0.2,0.6l-0.3-0.3l0.4,1l-0.1-0.1l0.1,0.7l0.1-0.1l-0.1-0.3l0.2,0.1
		l-0.1-0.6l0.1,0.1l-0.1-0.5l0.3,0.1l-0.2-0.6l0.4,0.3L25,15l0.2,0.1l-0.2-0.4l0.2,0.1L25,14.3c0,0-0.3-2-0.6-2.9
		c-0.2-0.5-0.4-1-0.6-1.5l0.3,0.1c0,0-0.3-1.6-0.6-2C23.4,8,23.2,7.8,23,7.8"/>
	<path class="st15" d="M18.4,5.1L19,4.9L18.9,5c0,0,0.9,0.2,1.5,0.4c0.3,0.1,0.5,0.2,0.8,0.3l-0.6-0.1c0,0,0.8,0.1,1.4,0.6
		c0.6,0.5,0.8,0.6,0.8,0.6l-0.3-0.1L22.7,7c0.4,0.2,0.7,0.4,1.1,0.6c0,0,0-0.1-0.5-1.1c-0.2-0.4-0.4-0.8-0.6-1.2
		c-0.1-0.2-0.3-0.4-0.5-0.6c-0.6-0.7-1.2-1.3-1.6-1.7c-1.3,0.1-3.1,0.8-3.1,1S18,4.7,18.4,5.1 M4.5,13.8c0-0.3,0.1-0.6,0.1-0.9
		c0.4-2.1,0.6-2.7,0.6-2.7l-0.3,0.3c0,0,0.2-1.2,0.5-1.8C5.7,8.1,5.8,8,5.8,8L5.4,8.4l0.3-0.8L5.3,8.1c0,0,0.2-0.7,0.6-1.1
		c0.2-0.2,0.3-0.4,0.5-0.6c0,0,0.9,0.1,2-0.3s1.7-0.8,2.7-0.8c1,0,1.5,0.1,1.5,0.1L12.1,5l0.7,0.2c0.5-0.7,0.9-1.3,1-1.5
		c0.3-0.6,0.6-2.3,0.8-3.7c-0.9-0.1-1.8,0-2.7,0.3c-1.5,0.4-2.1,0.9-2.1,0.9L9.6,1.2l0.2,0.2L9.4,1.4l0.1,0.2L9.2,1.5l0.1,0.3
		C8.4,2.1,7.6,2.7,6.9,3.3c-0.5,0.5-0.8,0.9-1,1.2C5.7,5,5.4,5.6,5.3,5.9L5,6.5l0.7,0.1c0,0-0.6,0.5-0.9,0.9L4.3,8l0.6-0.4L4.3,8.4
		l0.5-0.3L4.2,8.8l0.7-0.2l-1.2,1c0,0.3,0,0.5,0,0.8c0,0.2,0,0.8,0,1.4c0.2,0.1,0.5,0.2,0.6,0.6C4.4,13.2,4.5,13.8,4.5,13.8
		L4.5,13.8z"/>
	<path class="st4" d="M6.3,6.5c0.1-0.1,0.1-0.2,0.1-0.2s0.9,0.1,2-0.3s1.7-0.8,2.7-0.8c1,0,1.5,0.1,1.5,0.1L12.1,5l1.3,0.4l-0.4-0.3
		l0.7,0.4l-0.1-0.4l0.4,0.3L14.1,5l0.3,0.4l0.2-0.3l0.1,0.5L15,5l0.2,0.2l0.3-0.3v0.3L16,4.6V5l1.2-0.3l0.2,0.1l0.2-0.2l0.3,0.3
		L18,4.7l0.3,0.4L19,4.9L18.9,5c0,0,0.9,0.2,1.5,0.4c0.3,0.1,0.5,0.2,0.8,0.3l-0.6-0.1c0,0,0.8,0.1,1.4,0.6c0.2,0.1,0.3,0.2,0.4,0.3
		c0.3,0.1,0.6,0.2,0.9,0.3c0,0-0.1,0-0.4-0.3c-0.4-0.3-1.7-1.3-1.7-1.3l1,0.3l-1-1.4l0.6,0.2l-0.3-0.6c-1.1-1.2-1.7-1.6-1.7-1.6
		l-0.3,0.1V1.9l-0.2,0l-0.1-0.3l-0.2,0.2c-0.5-0.4-1-0.8-1.6-1c-1-0.4-1.2-0.4-1.2-0.4l-0.2,0.1l-0.1-0.2l-0.1,0.2l-0.1-0.2
		l-0.1,0.2l-0.1-0.3L15,0.2l-0.3-0.1c-0.9-0.1-1.9,0-2.8,0.3c-1.5,0.4-2.1,0.9-2.1,0.9L9.6,1.2l0,0l0.2,0.2L9.4,1.4l0.1,0.2L9.2,1.5
		l0,0l0.1,0.3C8.9,1.9,8.6,2.1,8.3,2.2C7.8,2.8,7.3,3.4,6.9,4.1L7.5,4c0,0-0.1,0-0.5,0.3C6.6,4.6,6,5,6,5l0.7-0.2L5.8,5.9l0.8-0.2
		c0,0,0,0-0.4,0.3C5.9,6.1,5.6,6.3,5.3,6.5c0,0,0.1,0,0.4-0.1C5.9,6.4,6.1,6.4,6.3,6.5"/>
	<path class="st15" d="M15.2,2.5c0.4,0.9,0.4,1,0.2,1.9C15.4,3.9,15.3,3.1,15.2,2.5"/>
	<path class="st15" d="M15,2.7c0.4,1.2,0.2,0.6,0.3,1.8l-0.1-0.3C15,3.4,15,3.5,15,2.7"/>
	<path class="st15" d="M14.4,2.8C15,3.7,14.9,3.6,15,4.6C14.8,4,14.6,3.4,14.4,2.8"/>
	<path class="st15" d="M13.7,2.9c1,0.9,0.6,0.9,1,1.9C14.3,4.2,14.2,3.5,13.7,2.9"/>
	<path class="st15" d="M13.3,3c1,0.9,0.7,0.9,1,2.1C14.1,4.4,13.8,3.6,13.3,3"/>
	<path class="st15" d="M12.6,2.9c1.1,0.8,1.1,0.8,1.2,2.1c0,0,0,0,0,0c0,0,0,0,0,0C13.6,4.1,13.3,3.6,12.6,2.9"/>
	<path class="st15" d="M15.9,4.5C16,4.1,16,3.5,16.1,3l0-0.2C16.2,3.8,16.3,3.6,15.9,4.5"/>
	<path class="st15" d="M16,2.9c0,0.9,0,0.9-0.2,1.7C15.8,3.7,15.7,3.9,16,2.9"/>
	<path class="st15" d="M16.5,2.9c0.1,1.2,0,0.9-0.2,1.8C16.3,4.1,16.4,3.5,16.5,2.9"/>
	<path class="st15" d="M16.8,2.7c0,1,0,0.9-0.4,1.8C16.6,4,16.7,3.3,16.8,2.7"/>
	<path class="st15" d="M17.4,2.9c-0.1,1.1-0.1,0.8-0.7,1.7l0.1-0.2L17,3.7C17.6,2.5,17.2,3.6,17.4,2.9"/>
	<path class="st15" d="M12.1,3c0.8,0.6,1.2,0.9,1.6,1.9C13.4,4.3,12.5,3.5,12.1,3"/>
	<path class="st15" d="M11.2,3c1.2,0.5,1.6,0.5,2.3,1.8C13,4.2,11.8,3.4,11.2,3"/>
	<path class="st15" d="M10.4,3.2c1.5,0.6,1.6,0.7,2.8,1.7L13,4.8l-0.3-0.2C12,4.1,11.2,3.6,10.4,3.2"/>
	<path class="st15" d="M10.3,3.7c1.4,0.4,1.3,0.3,2.4,1.2C12.1,4.4,11.1,4,10.3,3.7"/>
	<path class="st15" d="M14.7,2.4C15,3.2,14.8,2.6,15,3.8C14.6,2.6,14.8,3.3,14.7,2.4"/>
	<polygon class="st15" points="13.9,2.8 14.3,3.1 14.5,3.7 14.1,3.2 	"/>
	<path class="st15" d="M17.7,2.8c-0.3,0.9-0.2,0.9-0.7,1.7L17,4.3C17.2,3.8,17.4,3.3,17.7,2.8"/>
	<polygon class="st15" points="17.1,3.1 17.1,3.5 16.8,4 16.9,3.4 	"/>
	<path class="st15" d="M17.7,3.3c-0.1,0.6-0.1,0.8-0.5,1.2C17.3,4.4,17.6,3.5,17.7,3.3"/>
	<path class="st15" d="M20.3,4.8c-0.7,0-1.4,0-2,0.1C19,4.6,19.5,4.6,20.3,4.8"/>
	<path class="st15" d="M18.3,4.6c1.1-0.3,1-0.1,1.9-0.2C19.2,4.7,19.2,4.6,18.3,4.6"/>
	<path class="st15" d="M18.1,4.5c1.3-0.5,0.4-0.3,1.7-0.3c-1.3,0.3-0.3,0.2-1.4,0.2L18.1,4.5z"/>
	<path class="st15" d="M17.7,4.6c0.9-0.7,0.9-0.6,1.9-0.8C18.9,4,18.2,4.3,17.7,4.6"/>
	<path class="st15" d="M17.3,4.5c0.8-1,0.7-0.8,1.7-1.4C18.4,3.6,17.9,4,17.3,4.5"/>
	<path class="st15" d="M17.8,4.4c0.5-0.5,0.4-0.4,1.1-0.6C18.5,4.1,18.2,4.1,17.8,4.4"/>
	<path class="st15" d="M19.3,4.1L19.5,4l0.4,0C19.4,4.2,19.6,4.2,19.3,4.1"/>
	<path class="st15" d="M19.5,5c0.2-0.2,1.3-0.1,1.6-0.1C20.7,5,20.5,5.1,20.2,5C20.1,5,19.6,4.9,19.5,5"/>
	<path class="st15" d="M18.6,2.7c-0.5,0.7,0,0.3-0.8,1C18.3,2.8,17.9,3.3,18.6,2.7"/>
	<polygon class="st15" points="14.1,1.7 14.3,2.1 14.4,2.7 14.1,2.1 	"/>
	<path class="st15" d="M15.1,1.7c0.4,0.9,0.2,0.2,0.4,1.5C15,1.9,15.3,2.8,15.1,1.7"/>
	<path class="st15" d="M14.7,4.1c0.1,0.3,0.1,0.1,0,0.5l-0.1-0.3L14.7,4.1z"/>
	<path class="st15" d="M15.6,2.8c0.1,0.8,0.1,1.1,0,1.9C15.5,4,15.5,3.4,15.6,2.8"/>
	<path class="st13" d="M15.3,2.6c0.2,1,0.2,0.3,0.1,1.7C15.2,2.7,15.3,3.7,15.3,2.6"/>
	<path class="st13" d="M16.1,3.3c0,0.7,0.1,0.3-0.3,1.3C16,3.2,15.8,4.2,16.1,3.3"/>
	<path class="st13" d="M13.8,3.5c-0.1,0,0.2,0.4,0.2,0.5c0,0,0,0.3,0.1,0.7l-0.2-0.3C13.9,4.4,13.6,3.6,13.8,3.5"/>
	<path class="st4" d="M13.2,14.3c0,0-0.3-0.4-0.6-0.6c-0.1-0.1-0.3-0.2-0.5-0.2c0,0,0.4,0.3,0.6,0.6c0.2,0.3,0.3,0.4,0.3,0.4
		c-0.1-0.2-0.1-0.3-0.2-0.5c-0.1-0.2-0.1-0.2-0.1-0.2S12.9,14.1,13.2,14.3 M12.5,14.1c-0.2-0.2-0.5-0.4-0.7-0.5
		c-0.4-0.3-0.7-0.2-0.7-0.2c0.1,0,0.3-0.1,0.5-0.1h0.3c0,0-0.4-0.1-0.8,0l-0.4,0.1c0.1-0.1,0.2-0.1,0.3-0.2c0.2-0.1,0.3-0.1,0.3-0.1
		c-0.2,0-0.4,0.1-0.6,0.1c-0.1,0-0.2,0.1-0.3,0.1l0.4-0.3l-0.5,0.1l0.4-0.2l-0.7,0.2l0.5-0.2l-0.9,0.2l0.5-0.2l-0.8,0.2L9.6,13
		L9,13.2L9.3,13l-0.5,0.2l0.5-0.3c-0.2,0.1-0.4,0.1-0.6,0.2c-0.1,0-0.2,0.1-0.3,0.1c0.2-0.1,0.3-0.2,0.5-0.3
		c0.2-0.1,0.2-0.1,0.2-0.1S8.5,12.9,8.4,13s-0.2,0.1-0.2,0.1l0.2-0.2L8,13l0.2-0.2L7.6,13L8,12.8c-0.3,0.1-0.6,0.2-0.8,0.4
		c-0.5,0.3-0.6,0.4-0.6,0.4c0.1-0.1,0.2-0.3,0.3-0.4C7,13.1,7.1,13,7.2,13c-0.4,0.1-0.7,0.4-0.9,0.7c-0.4,0.5-0.4,0.6-0.4,0.6l0-0.5
		l-0.3,0.9c0,0,0.4-0.3,1-0.3s1.1,0,1.1,0c-0.3-0.1-0.7-0.1-1-0.1c-0.2,0-0.4,0-0.7,0c0.4-0.1,0.8-0.2,1.2-0.2c0.7,0,1,0,1,0
		c-0.3-0.1-0.6-0.1-0.9-0.1c-0.2,0-0.4,0-0.6,0c0,0,0.2-0.2,1.2-0.1c1,0.1,1.5,0.3,1.5,0.3L9,14.1c0,0,0.9,0,1.6,0.2
		c0.7,0.2,1.3,0.4,1.3,0.4l-0.8-0.3c0,0,0.6,0.1,1.1,0.4c0.4,0.3,0.5,0.3,0.5,0.3c-0.2-0.2-0.4-0.4-0.7-0.5
		c-0.4-0.2-0.5-0.2-0.5-0.2s0.7,0.2,1,0.4c0.3,0.2,0.3,0.2,0.3,0.2s-0.2-0.3-0.7-0.6c-0.5-0.3-0.6-0.4-0.6-0.4l0.8,0.4l-0.6-0.4
		L12.5,14.1z M17.5,15.3c0,0,0.4-0.7,1.7-0.8c1.3-0.1,2.4,0.5,2.5,0.5c0.1,0,0.1,0.1,0.1,0.1c0,0,0-0.1-0.2-0.2
		c-0.2-0.1-1.4-0.6-2.4-0.5C18.2,14.5,17.6,14.9,17.5,15.3L17.5,15.3z M18.3,16.4c0,0,0.6,0.1,1.2,0.2c0.5,0,0.6,0.1,0.6,0.1
		S18.8,16.7,18.3,16.4L18.3,16.4z M7.5,15.9c0,0,0.8-0.8,2.3-0.8s2,0.7,2,0.7c-0.3-0.4-0.7-0.7-1.1-0.8C10,14.8,8,15.1,7.5,15.9z
		 M10.9,16.7c0,0-0.5,0.2-0.9,0.3s-0.5,0.2-0.5,0.2S10.4,17.1,10.9,16.7L10.9,16.7z M12.8,19.3c0,0-0.8,0.2-1.1,0.9
		c-0.3,0.6-0.1,1.3,0.2,1.4s0.5,0.1,0.5,0.1s0.3,0.3,0.5,0.3c0.1,0,0.2,0,0.2,0c-0.2,0.1-0.3,0.1-0.5,0c-0.3-0.1-0.3-0.2-0.3-0.2
		s-0.6,0-0.8-0.5C11.2,20.8,11.4,19.6,12.8,19.3L12.8,19.3z M12.4,21.6c0,0,0.3-0.6,0.9-0.2c0.6,0.4,1,0.9,1.4,0.9s0.5,0,0.8-0.3
		c0.3-0.3,0.7-0.7,1.1-0.7c0.3,0,0.5,0.1,0.7,0.3l0.1,0.1l-0.1-0.1c0,0-0.1,0.1-0.4,0.1c-0.2,0-0.5,0-0.7-0.1c0,0-0.1,0-0.4,0.3
		c-0.3,0.3-0.4,0.6-1,0.6c-0.4,0-0.8-0.2-1-0.5c0,0-0.4-0.2-0.7-0.3c-0.3-0.1-0.3-0.1-0.3-0.1C12.6,21.4,12.5,21.5,12.4,21.6z
		 M17.2,22c0.1-0.1,0.2-0.1,0.4-0.2c0.3-0.1,0.5-0.3,0.6-0.7c0.1-0.4-0.1-1-0.4-1.2c-0.3-0.2-0.4-0.2-0.4-0.2s0.5,0.1,0.7,0.6
		C18.3,20.7,18.4,21.9,17.2,22L17.2,22z M17.2,15.7c-0.1,0.1-0.1,0.2-0.1,0.4c0,0.1-0.1,0.2-0.1,0.4C16.9,16.4,16.9,15.8,17.2,15.7
		L17.2,15.7z M13.4,15.5c0,0,0.2,0.7,0.1,1.3c-0.2,0.6-0.2,0.8-0.2,0.8C13.6,17,13.7,16.2,13.4,15.5L13.4,15.5z M12.6,15.6
		c0,0.2,0,0.3,0,0.5c0,0.2,0,0.2,0,0.2L12.1,16l0.6,0.6C12.7,16.6,12.9,16,12.6,15.6L12.6,15.6z M16.1,14.4c0-0.2,0-0.3,0-0.5
		c0-0.1,0.1-0.3,0.2-0.4c0,0-0.1,0.3-0.2,0.5s0,0.2,0,0.2s0.1-0.4,0.3-0.6c0.1-0.1,0.2-0.2,0.4-0.3c-0.2,0.1-0.3,0.2-0.4,0.4
		c0,0.1-0.1,0.2-0.1,0.3c0,0,0.3-0.6,0.7-0.7c0.2,0,0.4-0.1,0.6-0.1c-0.1,0-0.3,0.1-0.4,0.1c-0.1,0-0.1,0.1-0.2,0.1
		c0.3-0.1,0.5-0.2,0.8-0.2c0.3,0,0.4,0,0.4,0c-0.1-0.1-0.2-0.1-0.3-0.1c-0.1,0-0.2,0-0.2,0c0.2,0,0.4-0.1,0.6-0.1c0.1,0,0.2,0,0.3,0
		c-0.1,0-0.3,0-0.4,0c-0.2,0-0.2,0-0.2,0s0.5-0.1,0.7,0l0.4,0.1C18.8,13,18.6,13,18.5,13c-0.1,0-0.2,0-0.3,0c0.2,0,0.4-0.1,0.6,0
		c0.2,0,0.4,0.1,0.4,0.1c-0.1-0.1-0.2-0.1-0.4-0.1c-0.2,0-0.4-0.1-0.4-0.1c0.2,0,0.5,0,0.7,0c0.1,0,0.3,0.1,0.4,0.1l-0.4-0.2
		l0.7,0.1l-0.7-0.2l0.7,0.1l-0.5-0.2l1.1,0.3l-0.7-0.5l1.1,0.4l-0.6-0.5l0.7,0.5l-0.5-0.5l1,0.5l-0.7-0.6c0,0,0.3,0.1,0.6,0.3
		c0.2,0.1,0.3,0.1,0.5,0.1l-1-0.4c0,0,0.8,0.2,0.9,0.3s0.3,0.1,0.3,0.1l-0.7-0.5c0.2,0.1,0.4,0.2,0.7,0.3c0.1,0.1,0.2,0.1,0.3,0.2
		l-0.6-0.5c0,0,0.7,0.3,1,0.8s0.4,0.6,0.4,0.6c-0.1-0.2-0.3-0.4-0.5-0.5c-0.1-0.1-0.3-0.2-0.5-0.3c0,0,0.5,0.4,0.7,0.8
		c0.2,0.3,0.2,0.4,0.2,0.4c-0.2-0.2-0.4-0.4-0.6-0.6c-0.3-0.3-0.8-0.5-0.8-0.5c0,0,0.9,0.7,1,0.9c0.1,0.1,0.1,0.1,0.1,0.1
		s-0.1,0-0.5-0.2c-0.3-0.1-0.6-0.1-0.9-0.1c0,0,0.6,0,0.8,0l0.2,0c0,0-0.2-0.3-1.2-0.3c-0.9,0-1.3,0.4-1.3,0.4
		c0.1-0.1,0.2-0.2,0.4-0.3c0.1-0.1,0.4-0.2,0.4-0.2s-0.7,0.3-1.1,0.5C19.3,13.8,19,14,19,14l0.7-0.4l-1,0.4l0.4-0.3l-0.9,0.4
		l0.5-0.4c-0.3,0.1-0.6,0.3-0.9,0.4c-0.4,0.2-0.4,0.3-0.4,0.3l0.5-0.4c0,0-0.7,0.3-0.9,0.5c-0.1,0.1-0.2,0.1-0.3,0.2l0.5-0.5
		l-0.7,0.4l0.6-0.5l-0.7,0.4c0.1-0.2,0.2-0.3,0.4-0.4c0.1-0.1,0.3-0.2,0.4-0.2c-0.2,0-0.5,0.2-0.6,0.3c-0.3,0.3-0.3,0.4-0.3,0.4
		c0-0.2,0.1-0.3,0.2-0.5c0.1-0.2,0.2-0.2,0.2-0.2s-0.3,0.2-0.4,0.4C16.2,14.3,16.2,14.4,16.1,14.4l0.1-0.2L16.1,14.4z"/>
	<path class="st4" d="M21.7,16l-0.3-0.5l0.1,0c0,0-0.8-0.9-2.2-0.7c-1.4,0.2-2,1-2.1,1.2c0,0.1-0.1,0.2,0,0.4c0,0,0.2-0.2,0.6-0.3
		c0.5,0,2,0,2.5-0.1c0.6-0.2,0.6-0.3,0.6-0.3l0.3,0.2c0,0-0.2,0.1-0.8,0.3s-0.9,0.1-0.9,0.1l0.5,0.1L20,16.2c0,0,0.3,0,0.5-0.1
		c0.2,0,0.2-0.1,0.2-0.1l0.2,0.1L20.8,16c0.1,0,0.3,0,0.4-0.1c0.1,0,0.1-0.1,0.2-0.1L21.7,16z"/>
	<path class="st16" d="M17.7,15.7c-0.1,0.1-0.1,0.1-0.1,0.2c0,0,0.1,0.2,0.1,0.2s0.1,0,0.2,0C17.8,15.9,17.8,15.8,17.7,15.7
		C17.7,15.7,17.7,15.7,17.7,15.7 M20.9,15.6c0,0-0.3-0.4-0.9-0.6s-1.5,0.2-1.9,0.4c-0.1,0.1-0.2,0.1-0.2,0.2c0,0.1,0,0.2,0.1,0.2
		c0,0.1,0.1,0.1,0.1,0.1c0.2,0,0.4,0,0.6,0c0.5,0,0.9,0,1.4,0C20.4,15.9,20.9,15.6,20.9,15.6L20.9,15.6z"/>
	<path class="st12" d="M20,15.9c0.3-0.1,0.6-0.1,0.8-0.3c-0.1-0.1-0.2-0.2-0.3-0.2c-0.3-0.1-0.3-0.2-0.3-0.2S20.2,15.7,20,15.9
		L20,15.9"/>
	<path class="st17" d="M17.8,16c-0.1-0.1-0.1-0.2-0.1-0.3c0,0,0,0,0.1-0.1c0,0,0,0.1,0,0.1C17.8,15.9,17.8,15.9,17.8,16L17.8,16
		 M18.8,15.1c-0.4,0.1-0.7,0.2-1,0.5c0,0.1,0,0.2,0.1,0.2c0,0.1,0.1,0.1,0.1,0.1c0.2,0,0.4,0,0.6,0c0.1,0,0.2,0,0.3,0
		c0,0,0-0.1,0-0.1C18.9,15.7,18.8,15.2,18.8,15.1C18.8,15.2,18.8,15.1,18.8,15.1z"/>
	<path class="st18" d="M18.6,15.4c0,0-0.4,0.1-0.5,0.2c-0.1,0.2-0.1,0.2-0.1,0.2l1,0L18.6,15.4z"/>
	<path class="st19" d="M17.7,15.7c-0.1,0.1-0.1,0.1-0.1,0.2c0,0,0.1,0.2,0.1,0.2s0.1,0,0.2,0C17.8,15.9,17.8,15.8,17.7,15.7
		C17.7,15.7,17.7,15.7,17.7,15.7"/>
	<path class="st4" d="M20,15.1L20,15.1c-0.5-0.1-1.1,0-1.6,0.2c0,0.1,0,0.1,0,0.2c0,0.2,0.1,0.4,0.2,0.6c0.4,0,0.8,0,1.2,0
		C20.1,15.7,20.1,15.4,20,15.1"/>
	<g>
		<path class="st20" d="M19.3,15.1c0.2,0,0.3,0.1,0.3,0.3c0,0.2-0.1,0.3-0.3,0.3S19,15.6,19,15.4c0,0,0,0,0,0
			C19,15.2,19.1,15.1,19.3,15.1L19.3,15.1 M19.7,15c-0.4,0-0.7,0-1,0.1c-0.1,0.3,0,0.7,0.3,0.8c0,0,0.1,0,0.1,0c0.1,0,0.2,0,0.3,0
			c0.3-0.1,0.5-0.4,0.4-0.8C19.8,15.2,19.8,15.1,19.7,15L19.7,15z"/>
	</g>
	<path class="st12" d="M19.4,15.3c0.1,0,0.1,0.1,0.1,0.1s-0.1,0.1-0.1,0.1c-0.1,0-0.1-0.1-0.1-0.1c0,0,0,0,0,0
		C19.3,15.4,19.3,15.3,19.4,15.3"/>
	<path class="st12" d="M19.9,15.6c0.2,0,0.3,0,0.3,0.1s-0.1,0.1-0.3,0.1c-0.2,0-0.3,0-0.3-0.1S19.7,15.6,19.9,15.6"/>
	<path class="st19" d="M17.5,15.9c0,0,0.1,0.1,0.1,0.1c-0.1,0-0.1,0.1-0.2,0.1C17.3,16.1,17.3,15.9,17.5,15.9"/>
	<path class="st21" d="M12.1,16.6c0,0-0.3-1.1-1.9-1.2s-2.3,0.7-2.6,0.9c-0.1,0.1-0.2,0.3-0.3,0.5c0.3-0.1,0.6-0.2,0.9-0.2
		c0.7,0,1.3,0,1.9-0.1C10.8,16.3,11.5,16.3,12.1,16.6"/>
	<path class="st22" d="M9.3,16.5c0.3,0,0.6-0.1,0.9-0.1c0.3-0.1,0.7-0.1,1-0.1l0,0c0,0,0.2-0.3-0.5-0.5c-0.6-0.2-1.8,0-1.9,0.1
		c-0.2,0.1-0.2,0.1-0.2,0.1s0.1,0.3,0.4,0.4C9.2,16.5,9.3,16.5,9.3,16.5"/>
	<path class="st4" d="M10.5,15.4c-0.1,0-0.2,0-0.3,0c-0.4,0-0.7,0-1.1,0.1c-0.2,0.3-0.1,0.8,0.2,1.1c0.3,0,0.7-0.1,1-0.1
		c0.1,0,0.2,0,0.3,0C10.7,16.1,10.7,15.7,10.5,15.4"/>
	<g>
		<path class="st20" d="M9.8,15.6c0.2,0,0.3,0.1,0.3,0.3c0,0.2-0.1,0.3-0.3,0.3c-0.2,0-0.3-0.1-0.3-0.3c0,0,0,0,0,0
			C9.6,15.8,9.7,15.6,9.8,15.6C9.8,15.6,9.8,15.6,9.8,15.6 M10.2,15.4c-0.2,0-0.4,0-0.7,0c-0.3,0.2-0.4,0.6-0.2,0.8
			c0.1,0.1,0.2,0.2,0.3,0.3c0.2,0,0.3,0,0.5-0.1c0.3-0.2,0.4-0.5,0.2-0.8C10.3,15.5,10.2,15.4,10.2,15.4L10.2,15.4z"/>
	</g>
	<path class="st4" d="M11.4,16.2c-0.2-0.3-0.4-0.5-0.7-0.6c-0.7-0.3-1.9,0-2.2,0.4c0,0.1-0.1,0.1-0.1,0.2c0.1,0.1,0.3,0.3,0.7,0.3
		c0.6,0,1.2-0.2,1.6-0.2C11.1,16.2,11.3,16.3,11.4,16.2 M12.1,16.6c0,0-0.3-1.1-1.9-1.2c-1.6-0.1-2.3,0.7-2.6,0.9
		c-0.1,0.1-0.2,0.3-0.3,0.5c0.3-0.1,0.6-0.2,0.9-0.2c0.7,0,1.3,0,1.9-0.1C10.8,16.3,11.5,16.3,12.1,16.6L12.1,16.6z"/>
	<path class="st12" d="M9.9,15.7c0.1,0,0.1,0.1,0.1,0.1C10,15.9,10,16,9.9,16c-0.1,0-0.1-0.1-0.1-0.1c0,0,0,0,0,0
		C9.8,15.8,9.8,15.7,9.9,15.7C9.9,15.7,9.9,15.7,9.9,15.7"/>
	<path class="st12" d="M10.4,16c0.2,0,0.3,0,0.3,0.1c0,0-0.1,0.1-0.3,0.1s-0.3,0-0.3-0.1C10.1,16.1,10.2,16,10.4,16"/>
	<path class="st19" d="M10.7,25c0.6-0.2,1.2-0.4,1.8-0.7c0.9-0.4,1-0.4,1.5-0.3c0.5,0.2,0.7,0.2,1.1,0.1c0.4-0.1,0.8-0.4,1.3-0.2
		c0.5,0.1,1,0.3,1.4,0.5c0.4,0.2,0.8,0.4,1,0.4s0.3,0.1,0.3,0.2c0,0.1-0.3,0-0.5,0.2c-0.2,0.1-0.9,0.9-2.2,0.9
		c-1.3,0-1.4-0.1-1.4-0.1l0,0c0,0-0.1,0.1-0.8,0.1c-0.6,0-1.9-0.1-2.4-0.3c-0.5-0.3-0.6-0.4-0.8-0.5C10.8,25.2,10.4,25.3,10.7,25"/>
	<path class="st23" d="M15.2,25c0,0,0.3-0.6,1.1-0.6s1.2,0.3,1.4,0.3c0.2,0,0.3,0.2,0.2,0.3c-0.1,0.1-0.2,0.1-0.5,0.2s-0.6,0-1,0
		S15.1,25.2,15.2,25"/>
	<path class="st24" d="M10.7,25c0.6-0.2,1.2-0.4,1.8-0.7c0.9-0.4,1-0.4,1.5-0.3c0.4,0.1,0.6,0.2,0.8,0.2c0,0.2-0.1,0.5,0.1,0.7
		c0.2,0.2-1.2,0.5-1.9,0.7c-0.4,0.1-0.9,0.2-1.3,0.2c-0.4-0.2-0.5-0.4-0.7-0.4c0,0-0.1,0-0.1,0l0,0C10.8,25.2,10.8,25.1,10.7,25"/>
	<path class="st25" d="M10.7,25c0.5-0.2,1.1-0.4,1.6-0.6c0,0.1,0.2,0.2,0.4,0.3c0.7,0.1,0.8,0,1.3,0.1c0.3,0,0.5,0.1,0.8,0.1
		c0,0,0.1,0.1-0.1,0.3c-0.2,0.2-0.6,0.7-1.1,0.8c-0.2,0-0.5,0-0.9,0.1c-0.4,0-0.7-0.1-0.9-0.2c-0.5-0.3-0.6-0.4-0.8-0.5
		C10.8,25.2,10.4,25.3,10.7,25"/>
	<path class="st4" d="M19.1,24.9c0,0,0,0.1,0,0.1c0,0.1-0.3,0-0.5,0.2c-0.2,0.1-0.9,0.9-2.2,0.9c-1.3,0-1.4-0.1-1.4-0.1l0,0
		c0,0-0.1,0.1-0.8,0.1c-0.6,0-1.9-0.1-2.4-0.3c-0.5-0.3-0.6-0.4-0.8-0.5c-0.2,0-0.5,0-0.4-0.2c0.4-0.1,0.8-0.2,1.2-0.2
		c0.7,0,1.3,0,1.5-0.1s0.1,0,0.1,0s0.4,0.2,0.8,0.2c0.4,0,0.6-0.1,0.7-0.1c0.1,0,0.2,0.1,0.2,0.1s1,0,1.3-0.1c0.3-0.1,0.3,0,0.4,0
		c0.4,0.1,0.8,0.1,1.2,0.1C18.6,24.9,18.9,24.9,19.1,24.9"/>
	<path class="st26" d="M18.7,25.1c0,0-0.1,0-0.1,0.1c-0.2,0.1-0.9,0.9-2.2,0.9c-1.3,0-1.4-0.1-1.4-0.1l0,0c0,0-0.1,0.1-0.8,0.1
		c-0.6,0-1.9-0.1-2.4-0.3c-0.4-0.2-0.5-0.4-0.7-0.4c0.5-0.2,1.1-0.3,1.7-0.3c1,0,2.5,0,3.5,0c0.9,0,1.9,0,2.1,0
		C18.5,25,18.6,25.1,18.7,25.1"/>
	<path class="st27" d="M16.1,25l0.2,0c0.2,0,0.3,0,0.5,0c0.3,0,0.7,0.1,1,0.2c-0.4,0.4-1,0.6-1.6,0.7c-1,0-1.1-0.1-1.1-0.1
		s-0.9,0.2-1.6,0s-0.8-0.5,0.2-0.6s1.5,0,1.5,0c0,0.1,0,0.1,0,0.1S15.5,25.1,16.1,25"/>
	<path class="st28" d="M13,26.1c-0.5,0-0.9-0.1-1.2-0.3c-0.4-0.2-0.5-0.4-0.7-0.4c0.5-0.2,1.1-0.3,1.7-0.3c0.2,0,0.5,0,0.8,0
		c0,0-1.5,0.1-1.6,0.3C11.9,25.6,12.3,25.9,13,26.1 M18.7,25.2c0,0-0.1,0-0.1,0.1c-0.1,0-0.2,0.1-0.3,0.2c0-0.1,0-0.3-0.2-0.3
		c-0.5-0.1-2.1,0-2.6,0c-0.1,0-0.2,0-0.3-0.1c0.4,0,0.8,0,1.1,0c0.9,0,1.9,0,2.1,0C18.5,25.1,18.6,25.1,18.7,25.2L18.7,25.2z"/>
	<path class="st12" d="M15.5,25.4c0.3-0.1,0.6-0.2,1-0.2c0.5,0,0.6-0.1,0.6,0C17,25.3,16,25.5,15.5,25.4"/>
	<path class="st4" d="M6.7,27.8c0,0,0.9,1.3,1.9,1.8c0.9,0.6,1.3,0.7,1.3,0.7S8.6,29.8,7.7,29s-1.1-1.2-1.1-1.2L6.7,27.8z"/>
	<path class="st4" d="M10.5,30.3c0,0,1.5,1.2,2.5,1.3c0.9,0.1,2,0.1,2.2,0s0.2-0.1,0.2-0.1s0.3,0.1,0.9,0.1s1.6,0,2.5-0.7
		c0.5-0.4,1-0.8,1.4-1.2c0.2-0.1,0.3-0.3,0.5-0.4c0,0-0.7,0.6-1.2,1.2c-0.5,0.5-1.2,1.2-2.5,1.3s-1.4,0-1.4,0c0,0-0.1,0-0.1-0.1
		c0,0-0.5,0.2-1.5,0.2C12.9,31.8,11.8,31.5,10.5,30.3"/>
	<path class="st4" d="M9.2,24.4c0,0-0.1,0.6,0.1,0.9c0.2,0.3,0.3,0.3,0.3,0.3S8.8,25.2,9.2,24.4 M20.6,24.5c0,0,0.1,0.2-0.1,0.6
		c-0.2,0.5-0.2,0.5-0.2,0.5S20.9,25.2,20.6,24.5L20.6,24.5z M11.5,20.7c0,0-0.6,0.5-0.7,1.1c-0.1,0.2-0.1,0.5-0.2,0.8
		c0,0,0-0.7,0.2-1.2c0.2-0.3,0.4-0.6,0.6-0.8L11.5,20.7z M12.4,26.8c0.4,0.3,0.9,0.5,1.4,0.5c0.8,0.1,1.2,0,1.2,0
		S13.2,27.8,12.4,26.8L12.4,26.8z"/>
	<path class="st29" d="M21.1,7.5c0-0.5-1.8-0.6-1.8-0.6C19,7.9,21.1,8,21.1,7.5z"/>
	<path class="st29" d="M17.5,23.9c0.2,0.1,0.5,0.2,0.7,0.3c0.3,0.2,0.6-0.2,0.6-0.3S17.6,23.5,17.5,23.9z"/>
	<path class="st29" d="M17.7,20.8c0-0.2-0.1-0.7-0.4-0.8c0,0,0.1,0.5,0,0.7C17.2,20.9,17.6,21,17.7,20.8z"/>
	<path class="st29" d="M14.7,20.5c0.6,0,1.4-0.3,1.3-0.8c-0.2-0.5-1.2-1.1-1.5-0.4C14.5,19.3,14.2,20.5,14.7,20.5z"/>
	<path class="st5" d="M6.7,27.8L6.7,27.8c0,0,0-0.1-0.4-0.9c-0.2-0.5-0.6-1.3-0.9-2.2c-0.2-0.6-0.4-1.2-0.5-1.9
		c-0.2-1.2-0.4-3.8-0.4-4.6c0,0,0-0.1,0-0.1c0,0,0-0.1,0-0.1c0,0-0.1,0-0.1,0c0,0.4,0.1,3.4,0.4,4.8c0.1,0.6,0.3,1.3,0.5,1.9
		c0.3,0.9,0.7,1.7,0.9,2.2c0.3,0.7,0.4,0.9,0.4,0.9c0,0,0.1,0,0.1,0.1C6.8,28,6.8,28,6.8,28.1C6.8,28,6.8,27.9,6.7,27.8z"/>
	<path class="st5" d="M24.9,17.3c0-0.1,0-0.2,0-0.2c0,0,0,0,0-0.1c0,0-0.1,0-0.1,0c0,0,0,0.1,0,0.1c0,0,0,0.1,0,0.1
		c0,0.7,0.1,2.3,0.2,2.7c0.1,0.4-0.1,1.4-0.4,2.7c0,0.1-0.1,0.3-0.1,0.5c-0.3,1.4-0.9,3.8-0.9,3.8v0c0,0.1,0,0.1,0,0.2
		c0,0,0.1-0.2,0.1-0.2s0.6-2.4,0.9-3.8c0-0.2,0.1-0.3,0.1-0.5c0.3-1.3,0.5-2.3,0.4-2.7C24.9,19.6,24.9,18,24.9,17.3z"/>
</g>
</svg>
