<svg xmlns="http://www.w3.org/2000/svg" width="25" height="25" viewBox="0 0 25 25"><title>usa</title><g><path fill="#B41F30" d="M24.96 4.16a1.04 1.04 0 0 0-1.04-1.04h-13.52v10.4h-10.4v7.28a1.04 1.04 0 0 0 1.04 1.04h22.88a1.04 1.04 0 0 0 1.04-1.04v-16.64z"></path><path fill="#E6E6E6" d="M10.4 5.2h14.56v2.08h-14.56z"></path><path fill="#E6E6E6" d="M10.4 9.36h14.56v2.08h-14.56z"></path><path fill="#E6E6E6" d="M0 13.52v2.08h24.96v-2.08h-14.56z"></path><path fill="#E6E6E6" d="M0 17.68h24.96v2.08h-24.96z"></path><path fill="#00256A" d="M10.4 13.52h-10.4v-9.36a1.04 1.04 0 0 1 1.04-1.04h9.36v10.4z"></path><path fill="#FFFFFF" d="M5.2 7.24l-0.33 0.71h-0.78l0.57 0.59-0.21 0.86 0.75-0.42 0.75 0.42-0.21-0.86 0.57-0.59h-0.78z"></path><path fill="#FFFFFF" d="M2.66 4.7l-0.33 0.71h-0.79l0.58 0.59-0.21 0.86 0.75-0.43 0.75 0.43-0.22-0.86 0.58-0.59h-0.79z"></path><path fill="#FFFFFF" d="M7.74 4.7l0.33 0.71h0.79l-0.58 0.59 0.21 0.86-0.75-0.43-0.75 0.43 0.22-0.86-0.58-0.59h0.79z"></path><path fill="#FFFFFF" d="M2.66 11.94l-0.33-0.71h-0.79l0.58-0.59-0.21-0.86 0.75 0.43 0.75-0.43-0.22 0.86 0.58 0.59h-0.79z"></path><path fill="#FFFFFF" d="M7.74 11.94l0.33-0.71h0.79l-0.58-0.59 0.21-0.86-0.75 0.43-0.75-0.43 0.22 0.86-0.58 0.59h0.79z"></path></g></svg>